<svg id="svg" version="1.1" width="400" height="510" viewBox="0 0 400 510" xmlns="http://www.w3.org/2000/svg" xmlns:xlink="http://www.w3.org/1999/xlink" ><g id="svgg"><path id="path0" d="M218.556 0.600 C 218.478 0.820,218.366 2.890,218.307 5.200 L 218.200 9.400 216.800 9.400 L 215.400 9.400 215.287 4.900 L 215.174 0.400 208.198 0.400 L 201.221 0.400 201.311 43.500 C 201.395 84.143,201.358 86.748,200.671 89.200 C 198.487 96.988,193.415 103.265,186.600 106.612 C 180.547 109.586,184.781 109.378,128.200 109.484 C 71.381 109.590,73.524 109.490,64.611 112.445 C 37.755 121.346,22.150 147.249,25.577 177.237 C 28.376 201.735,44.959 220.623,69.372 227.119 L 73.400 228.191 200.000 228.405 C 320.256 228.609,326.720 228.655,329.000 229.337 C 355.011 237.117,355.419 272.019,329.600 280.658 C 327.502 281.360,323.702 281.404,247.600 281.614 L 167.800 281.833 163.800 282.742 C 139.773 288.207,122.208 306.633,118.582 330.179 C 113.422 363.682,132.333 392.780,163.722 399.638 C 166.591 400.265,169.776 400.511,178.200 400.757 C 196.504 401.292,204.289 405.856,209.117 418.881 L 210.199 421.800 210.309 465.500 L 210.420 509.200 217.398 509.200 L 224.375 509.200 224.487 504.500 L 224.600 499.800 226.000 499.800 L 227.400 499.800 227.600 504.447 L 227.800 509.094 234.400 509.047 L 241.000 509.000 241.112 465.400 C 241.208 427.694,241.141 421.305,240.609 418.137 C 237.053 396.924,221.857 379.249,201.491 372.637 C 195.102 370.563,192.401 370.260,176.600 369.850 C 167.221 369.607,162.589 367.773,156.776 362.000 C 143.392 348.709,146.876 323.490,163.200 315.504 C 169.644 312.351,161.531 312.639,250.800 312.392 C 330.064 312.172,330.624 312.164,334.200 311.330 C 394.899 297.167,394.484 212.719,333.646 198.709 L 329.800 197.823 203.400 197.611 L 77.000 197.400 73.722 196.136 C 51.728 187.655,49.486 154.151,70.200 143.515 C 76.316 140.374,71.226 140.642,129.800 140.384 C 181.821 140.155,182.228 140.147,186.046 139.279 C 209.884 133.863,226.653 116.813,231.468 93.097 C 232.370 88.655,232.798 0.407,231.918 0.389 C 222.746 0.201,218.675 0.266,218.556 0.600 M196.794 42.900 C 196.789 79.393,196.703 85.762,196.184 87.963 C 194.389 95.578,187.215 102.748,179.800 104.337 C 178.473 104.622,160.714 104.848,127.000 105.009 C 83.908 105.214,75.623 105.345,72.400 105.869 C 46.681 110.054,26.298 130.235,21.563 156.200 C 15.035 192.002,35.670 224.108,70.337 232.088 L 74.200 232.977 200.600 233.189 C 326.830 233.400,327.003 233.401,329.251 234.221 C 349.186 241.496,349.184 268.203,329.248 275.969 L 326.600 277.000 246.800 277.221 C 157.167 277.469,165.113 277.193,155.559 280.391 C 104.705 297.415,97.632 369.575,144.132 396.978 C 154.226 402.927,162.977 405.060,179.350 405.563 C 194.863 406.039,201.085 409.750,204.899 420.800 L 205.797 423.400 205.912 466.300 L 206.027 509.200 207.427 509.200 L 208.827 509.200 208.714 466.100 L 208.600 423.000 207.484 419.844 C 203.077 407.381,195.812 403.057,178.600 402.651 C 160.456 402.222,149.686 398.707,138.178 389.458 C 118.340 373.514,110.663 344.884,119.431 319.541 C 126.110 300.235,142.743 285.560,162.951 281.145 C 169.393 279.738,175.713 279.628,251.542 279.614 C 334.058 279.598,328.099 279.788,333.565 277.001 C 351.381 267.916,351.369 241.862,333.546 233.081 C 327.706 230.204,338.324 230.425,199.755 230.296 L 74.600 230.180 70.720 229.286 C 11.050 215.533,6.293 129.577,64.154 110.627 C 73.185 107.670,69.021 107.868,127.400 107.621 L 179.800 107.400 182.734 106.328 C 189.042 104.024,194.132 99.580,196.914 93.948 C 199.677 88.355,199.585 90.103,199.593 42.900 L 199.600 0.400 198.200 0.400 L 196.800 0.400 196.794 42.900 M234.000 44.330 C 234.000 92.099,234.037 91.207,231.728 99.200 C 225.207 121.775,205.687 138.661,182.728 141.587 C 180.583 141.860,161.483 142.050,129.000 142.122 C 72.640 142.245,76.970 142.021,71.000 145.127 C 62.455 149.573,58.019 157.736,58.006 169.036 C 57.991 182.051,63.750 190.658,75.200 194.732 L 78.200 195.800 204.800 196.014 L 331.400 196.227 334.800 197.084 C 392.352 211.597,398.274 288.624,343.508 310.356 C 333.062 314.501,335.455 314.399,248.316 314.406 C 163.835 314.412,169.884 314.219,164.000 317.106 C 146.251 325.815,145.758 355.286,163.200 364.898 C 167.818 367.443,169.107 367.674,180.600 368.006 C 206.198 368.747,223.620 378.130,234.936 397.271 C 243.005 410.918,243.200 412.551,243.200 466.439 L 243.200 509.251 244.500 509.125 L 245.800 509.000 245.858 467.400 C 245.926 418.422,245.881 417.604,242.569 407.648 C 233.893 381.570,211.252 365.802,182.142 365.563 C 169.223 365.457,165.439 364.310,159.955 358.838 C 154.738 353.633,153.400 350.032,153.400 341.200 C 153.400 329.367,158.100 322.122,168.267 318.281 L 170.600 317.400 250.200 317.186 L 329.800 316.972 334.756 315.872 C 400.460 301.285,400.343 209.354,334.600 194.335 L 330.600 193.421 204.400 193.211 L 78.200 193.000 75.645 192.077 C 56.431 185.138,54.858 155.963,73.228 147.229 C 78.378 144.780,77.903 144.800,132.050 144.800 C 178.426 144.800,180.935 144.763,185.269 144.022 C 212.376 139.388,233.424 117.001,236.358 89.684 C 236.652 86.945,236.800 71.324,236.800 42.984 L 236.800 0.400 235.400 0.400 L 234.000 0.400 234.000 44.330 M218.308 36.300 L 218.200 45.400 216.800 45.400 L 215.400 45.400 215.292 36.810 C 215.167 26.939,215.121 27.200,216.995 27.200 L 218.415 27.200 218.308 36.300 M218.308 72.300 L 218.200 81.400 216.800 81.400 L 215.400 81.400 215.292 72.300 L 215.185 63.200 216.800 63.200 L 218.415 63.200 218.308 72.300 M214.159 98.854 L 215.156 99.308 213.727 102.154 C 210.254 109.074,205.030 115.094,203.612 113.811 C 202.476 112.783,202.577 112.380,204.419 110.581 C 206.419 108.629,209.484 104.223,211.155 100.900 C 212.494 98.236,212.617 98.152,214.159 98.854 M188.524 123.997 C 187.353 125.025,178.765 126.400,173.510 126.400 L 170.400 126.400 170.400 125.000 L 170.400 123.600 172.500 123.580 C 177.397 123.533,184.406 122.584,186.896 121.631 C 187.847 121.267,189.273 123.339,188.524 123.997 M80.800 124.968 L 80.800 126.336 78.100 126.618 C 74.461 126.998,70.286 128.089,66.800 129.573 C 63.329 131.050,63.747 131.045,63.008 129.615 C 62.287 128.220,62.180 128.308,66.828 126.481 C 70.909 124.877,75.750 123.762,79.100 123.654 C 80.779 123.601,80.800 123.617,80.800 124.968 M116.725 124.900 L 116.600 126.200 107.500 126.308 L 98.400 126.415 98.400 125.008 L 98.400 123.600 107.625 123.600 L 116.851 123.600 116.725 124.900 M152.725 124.900 L 152.600 126.200 143.500 126.308 L 134.400 126.415 134.400 125.008 L 134.400 123.600 143.625 123.600 L 152.851 123.600 152.725 124.900 M49.774 141.097 L 50.698 141.794 49.203 143.997 C 47.064 147.151,45.011 151.380,43.991 154.739 L 43.109 157.644 41.854 157.375 C 40.188 157.018,40.235 157.175,40.997 154.530 C 42.299 150.012,47.384 140.400,48.472 140.400 C 48.680 140.400,49.265 140.714,49.774 141.097 M42.400 175.975 C 42.400 178.736,44.290 185.021,46.345 189.091 L 47.601 191.579 46.365 192.218 C 45.212 192.815,45.094 192.809,44.587 192.128 C 42.809 189.745,39.600 179.590,39.600 176.349 C 39.600 174.845,39.641 174.800,41.000 174.800 C 42.282 174.800,42.400 174.899,42.400 175.975 M61.165 205.576 C 63.915 207.338,67.816 209.054,71.407 210.082 C 74.806 211.055,74.800 211.050,74.800 212.600 C 74.800 214.399,68.846 212.944,62.432 209.579 C 57.791 207.143,57.308 206.694,57.982 205.434 C 58.680 204.129,58.924 204.140,61.165 205.576 M110.724 213.100 L 110.600 214.600 101.600 214.600 L 92.600 214.600 92.476 213.100 L 92.352 211.600 101.600 211.600 L 110.848 211.600 110.724 213.100 M146.724 213.100 L 146.600 214.600 137.600 214.600 L 128.600 214.600 128.476 213.100 L 128.352 211.600 137.600 211.600 L 146.848 211.600 146.724 213.100 M182.724 213.100 L 182.600 214.600 173.600 214.600 L 164.600 214.600 164.476 213.100 L 164.352 211.600 173.600 211.600 L 182.848 211.600 182.724 213.100 M218.724 213.100 L 218.600 214.600 209.600 214.600 L 200.600 214.600 200.476 213.100 L 200.352 211.600 209.600 211.600 L 218.848 211.600 218.724 213.100 M254.800 213.000 L 254.800 214.400 245.600 214.400 L 236.400 214.400 236.400 213.000 L 236.400 211.600 245.600 211.600 L 254.800 211.600 254.800 213.000 M290.800 213.000 L 290.800 214.400 281.600 214.400 L 272.400 214.400 272.400 213.000 L 272.400 211.600 281.600 211.600 L 290.800 211.600 290.800 213.000 M326.332 211.950 C 327.480 212.677,326.724 214.602,325.300 214.578 C 324.585 214.566,320.490 214.521,316.200 214.478 L 308.400 214.400 308.400 213.000 L 308.400 211.600 317.100 211.606 C 321.885 211.609,326.039 211.764,326.332 211.950 M346.760 219.173 C 349.844 221.267,353.264 224.424,355.881 227.590 L 358.021 230.181 357.110 230.882 C 355.795 231.894,355.437 231.785,354.194 229.992 C 352.698 227.833,348.219 223.650,345.228 221.619 L 342.796 219.968 343.408 218.784 C 344.169 217.313,343.990 217.292,346.760 219.173 M365.382 249.018 C 365.809 251.870,365.632 259.934,365.078 262.800 C 364.577 265.392,364.572 265.400,363.259 265.338 C 361.537 265.257,361.592 265.442,362.272 262.000 C 362.699 259.844,362.812 257.403,362.675 253.324 C 362.467 247.123,362.451 247.200,364.021 247.200 C 365.006 247.200,365.135 247.373,365.382 249.018 M355.926 281.711 C 356.875 282.854,344.390 293.600,342.114 293.600 C 341.637 293.600,340.800 292.391,340.800 291.701 C 340.800 291.508,342.465 290.252,344.500 288.910 C 346.535 287.568,349.536 285.114,351.168 283.457 C 354.217 280.362,354.669 280.196,355.926 281.711 M180.321 297.037 L 180.441 298.274 175.121 298.540 C 170.460 298.773,167.401 299.210,163.550 300.194 C 162.634 300.428,162.444 300.303,162.065 299.215 C 161.555 297.753,161.955 297.511,166.400 296.590 C 170.383 295.766,171.073 295.704,175.800 295.754 L 180.200 295.800 180.321 297.037 M216.200 297.000 L 216.200 298.200 207.100 298.308 L 198.000 298.415 198.000 297.000 L 198.000 295.585 207.100 295.692 L 216.200 295.800 216.200 297.000 M252.325 297.100 L 252.451 298.400 243.225 298.400 L 234.000 298.400 234.000 296.992 L 234.000 295.585 243.100 295.692 L 252.200 295.800 252.325 297.100 M288.325 297.100 L 288.451 298.400 279.225 298.400 L 270.000 298.400 270.000 296.992 L 270.000 295.585 279.100 295.692 L 288.200 295.800 288.325 297.100 M324.230 296.577 C 324.674 298.348,324.410 298.400,314.976 298.400 L 306.000 298.400 306.000 297.000 L 306.000 295.600 314.992 295.600 L 323.985 295.600 324.230 296.577 M146.869 307.862 C 147.914 308.808,147.832 309.035,145.531 311.544 C 143.254 314.027,139.521 319.534,138.567 321.818 C 137.970 323.247,136.618 323.537,135.520 322.471 C 134.745 321.720,139.695 313.666,143.370 309.700 C 145.963 306.901,145.864 306.953,146.869 307.862 M134.869 345.062 C 135.047 348.278,135.489 351.242,136.175 353.822 C 137.341 358.199,137.373 357.905,135.695 358.241 C 134.474 358.485,134.436 358.447,133.848 356.345 C 133.518 355.165,133.044 353.480,132.796 352.600 C 132.547 351.720,132.241 348.512,132.115 345.470 L 131.886 339.941 133.243 340.070 L 134.600 340.200 134.869 345.062 M153.422 377.457 C 154.754 378.306,157.004 379.535,158.422 380.188 C 159.840 380.841,161.046 381.397,161.102 381.423 C 161.757 381.727,160.169 383.982,159.456 383.761 C 156.217 382.756,149.892 378.885,146.589 375.885 L 144.600 374.078 145.553 373.057 L 146.505 372.037 148.753 373.975 C 149.989 375.042,152.090 376.608,153.422 377.457 M193.500 384.965 C 195.998 385.567,196.399 385.784,196.394 386.532 C 196.381 388.331,195.970 388.470,192.771 387.756 C 191.137 387.391,187.190 386.982,184.000 386.847 L 178.200 386.600 178.071 385.257 L 177.943 383.915 184.271 384.090 C 188.354 384.204,191.629 384.514,193.500 384.965 M219.564 402.600 C 221.217 404.995,223.600 409.210,223.600 409.738 C 223.600 409.982,221.198 410.934,221.036 410.754 C 220.960 410.669,220.491 409.790,219.993 408.800 C 218.466 405.765,215.980 402.330,213.260 399.498 L 210.665 396.796 211.611 395.788 L 212.558 394.780 215.095 397.290 C 216.490 398.670,218.501 401.060,219.564 402.600 M227.200 436.800 L 227.200 446.000 225.800 446.000 L 224.400 446.000 224.400 436.800 L 224.400 427.600 225.800 427.600 L 227.200 427.600 227.200 436.800 M227.400 472.800 L 227.400 481.800 225.900 481.924 L 224.400 482.048 224.400 472.800 L 224.400 463.552 225.900 463.676 L 227.400 463.800 227.400 472.800 " stroke="none" fill="#a4a49c" fill-rule="evenodd"></path><path id="path1" d="M0.000 255.000 L 0.000 510.000 97.000 510.000 L 194.000 510.000 193.983 474.100 C 193.973 454.355,193.818 437.440,193.638 436.511 C 193.457 435.573,193.464 434.916,193.656 435.034 C 193.845 435.151,194.000 434.961,194.000 434.611 C 194.000 434.261,193.720 433.867,193.377 433.736 C 193.034 433.604,192.850 433.248,192.966 432.944 C 193.201 432.332,192.448 430.363,191.808 429.913 C 191.584 429.756,191.383 429.396,191.361 429.113 C 191.315 428.497,190.762 427.155,190.326 426.600 C 188.443 424.202,187.872 423.632,187.554 423.829 C 187.348 423.956,187.230 423.888,187.290 423.678 C 187.504 422.934,183.555 419.828,182.299 419.753 C 181.866 419.726,181.397 419.543,181.256 419.344 C 181.044 419.046,179.137 418.014,178.400 417.799 C 177.098 417.418,172.958 417.191,164.898 417.057 C 157.465 416.933,155.042 416.767,154.533 416.348 C 154.082 415.975,153.822 415.941,153.721 416.242 C 153.564 416.708,151.693 416.522,150.988 415.970 C 150.761 415.793,150.131 415.556,149.588 415.444 C 149.044 415.332,148.240 415.147,147.800 415.032 C 144.947 414.287,143.999 414.115,143.994 414.342 C 143.991 414.484,143.856 414.395,143.694 414.145 C 143.336 413.591,140.272 412.269,140.609 412.814 C 140.740 413.026,140.672 413.200,140.457 413.200 C 140.242 413.200,140.007 413.034,139.933 412.830 C 139.860 412.627,139.530 412.402,139.200 412.330 C 138.870 412.259,138.510 412.110,138.400 412.000 C 137.847 411.447,134.038 409.750,134.234 410.143 C 134.359 410.394,134.103 410.195,133.666 409.700 C 133.229 409.205,132.761 408.800,132.626 408.800 C 132.491 408.800,131.440 408.165,130.290 407.389 C 129.141 406.613,127.864 405.758,127.454 405.489 C 127.043 405.220,126.295 404.685,125.791 404.300 C 125.286 403.915,124.667 403.600,124.413 403.600 C 124.160 403.600,124.064 403.420,124.200 403.200 C 124.336 402.980,124.291 402.800,124.100 402.800 C 123.908 402.800,123.223 402.283,122.576 401.651 C 121.929 401.019,120.590 399.826,119.600 398.999 C 118.610 398.173,117.827 397.385,117.860 397.248 C 117.893 397.112,117.713 397.060,117.460 397.133 C 117.207 397.207,117.130 397.137,117.289 396.978 C 117.555 396.711,116.654 395.375,114.875 393.400 C 114.479 392.960,113.721 391.939,113.190 391.130 C 112.660 390.322,112.085 389.747,111.913 389.854 C 111.741 389.960,111.600 389.704,111.600 389.285 C 111.600 388.865,111.240 388.107,110.800 387.600 C 110.360 387.093,110.000 386.475,110.000 386.227 C 110.000 385.979,109.640 385.517,109.200 385.200 C 108.760 384.883,108.400 384.279,108.400 383.859 C 108.400 383.058,106.875 380.300,106.300 380.061 C 106.117 379.985,106.163 379.686,106.402 379.397 C 106.728 379.005,106.656 378.736,106.119 378.336 C 105.724 378.041,105.341 377.262,105.270 376.605 C 105.198 375.947,104.998 375.227,104.826 375.005 C 104.653 374.782,104.112 372.890,103.624 370.800 C 103.136 368.710,102.583 366.640,102.396 366.200 C 100.731 362.286,101.705 339.163,103.735 334.400 C 103.876 334.070,104.055 333.440,104.134 333.000 C 104.213 332.560,104.485 331.693,104.739 331.074 C 104.992 330.455,105.200 329.892,105.200 329.823 C 105.200 329.754,105.502 329.001,105.871 328.149 C 106.240 327.297,106.577 326.420,106.621 326.200 C 106.783 325.388,108.584 321.783,109.084 321.271 C 109.368 320.981,109.600 320.568,109.600 320.353 C 109.600 317.670,129.656 295.673,137.520 289.731 C 143.711 285.053,150.893 281.423,158.004 279.378 C 166.595 276.906,160.311 277.085,247.400 276.832 C 322.593 276.613,327.099 276.560,328.792 275.885 C 330.470 275.216,331.264 274.449,331.446 273.324 C 331.488 273.062,331.718 272.252,331.957 271.524 C 332.621 269.499,332.730 265.012,332.155 263.339 C 331.874 262.522,331.734 261.706,331.845 261.526 C 331.956 261.347,331.902 261.200,331.724 261.199 C 331.546 261.199,331.364 260.681,331.320 260.049 C 331.136 257.406,325.787 249.689,324.485 250.189 C 324.195 250.300,324.060 250.227,324.184 250.026 C 324.425 249.636,322.370 248.000,321.638 248.000 C 321.397 248.000,321.200 247.840,321.200 247.643 C 321.200 247.251,319.293 246.621,318.500 246.752 C 318.225 246.798,318.000 246.669,318.000 246.466 C 318.000 244.775,319.991 244.800,187.881 244.800 C 78.360 244.800,62.685 244.726,60.964 244.204 C 59.884 243.877,58.145 243.607,57.100 243.604 C 56.055 243.602,55.200 243.420,55.200 243.200 C 55.200 242.980,54.880 242.800,54.489 242.800 C 54.098 242.800,53.402 242.536,52.942 242.214 C 52.481 241.892,52.015 241.718,51.905 241.828 C 51.795 241.938,50.647 241.626,49.353 241.134 C 48.059 240.642,46.640 240.293,46.200 240.359 C 45.760 240.424,45.534 240.341,45.699 240.174 C 46.014 239.852,43.904 238.400,43.122 238.400 C 42.869 238.400,42.379 238.153,42.031 237.850 C 41.684 237.548,40.275 236.703,38.900 235.974 C 37.525 235.244,36.400 234.501,36.400 234.323 C 36.400 234.146,35.905 233.979,35.300 233.954 C 34.502 233.920,34.411 233.853,34.969 233.711 C 35.576 233.556,35.362 233.333,33.960 232.657 C 32.982 232.186,32.185 231.700,32.191 231.577 C 32.196 231.454,31.210 230.489,30.000 229.431 C 27.149 226.940,24.581 224.274,24.694 223.924 C 24.744 223.773,24.455 223.544,24.053 223.417 C 23.650 223.289,23.118 222.738,22.869 222.192 C 22.621 221.647,22.233 221.200,22.009 221.200 C 21.784 221.200,21.644 221.065,21.699 220.900 C 21.792 220.617,19.990 218.024,18.900 216.871 C 18.625 216.581,18.400 216.086,18.400 215.771 C 18.400 215.457,18.265 215.198,18.100 215.195 C 17.935 215.193,17.446 214.452,17.013 213.550 C 16.581 212.647,15.997 211.820,15.716 211.712 C 15.435 211.604,15.288 211.382,15.389 211.217 C 15.491 211.053,15.214 210.217,14.774 209.359 C 14.334 208.502,13.924 207.530,13.865 207.200 C 13.805 206.870,13.361 205.722,12.878 204.649 C 12.395 203.576,12.000 202.541,12.000 202.349 C 12.000 202.157,11.859 202.000,11.686 202.000 C 11.513 202.000,11.356 201.685,11.337 201.300 C 11.254 199.583,10.666 196.535,10.218 195.501 C 10.052 195.117,9.890 194.352,9.858 193.802 C 9.826 193.251,9.684 192.800,9.542 192.800 C 9.401 192.800,9.278 192.395,9.271 191.900 C 9.263 191.405,9.151 187.569,9.022 183.375 C 8.887 179.004,8.959 174.481,9.191 172.775 C 9.413 171.139,9.677 168.990,9.777 168.000 C 9.948 166.302,10.261 164.600,10.403 164.600 C 10.438 164.600,10.512 164.240,10.568 163.800 C 10.941 160.861,15.459 150.337,18.452 145.436 C 22.152 139.378,41.025 120.005,47.400 115.721 C 54.177 111.167,61.049 108.155,69.225 106.158 L 73.800 105.040 126.400 104.813 C 185.524 104.558,183.206 104.685,183.787 101.669 C 183.879 101.189,184.095 100.573,184.266 100.298 C 184.437 100.024,184.673 99.530,184.789 99.200 C 185.203 98.023,185.020 13.411,184.602 13.106 C 184.352 12.923,184.388 12.810,184.700 12.806 C 184.975 12.803,185.200 12.545,185.200 12.233 C 185.200 11.922,185.335 11.601,185.500 11.521 C 185.665 11.441,188.318 8.816,191.395 5.688 L 196.989 0.000 98.495 0.000 L 0.000 0.000 0.000 255.000 M199.898 43.500 C 199.754 91.934,199.966 88.271,196.944 94.391 C 194.913 98.503,190.503 102.913,186.391 104.944 C 180.250 107.977,184.924 107.738,126.600 108.002 C 68.335 108.267,72.497 108.070,63.800 110.973 C 43.788 117.653,28.489 135.438,24.552 156.600 C 18.789 187.572,35.519 217.627,63.739 226.997 C 72.950 230.055,59.057 229.750,200.200 229.995 C 317.614 230.199,326.756 230.263,328.800 230.894 C 352.669 238.265,353.474 270.440,330.000 278.867 L 327.400 279.800 247.800 280.025 C 175.995 280.228,167.887 280.314,165.000 280.909 C 138.831 286.299,119.993 306.147,116.789 331.707 C 112.466 366.197,132.375 395.103,164.800 401.414 C 167.058 401.853,171.694 402.175,178.600 402.371 C 190.020 402.695,191.556 402.982,196.400 405.702 C 199.813 407.618,204.411 412.495,206.137 416.030 C 208.937 421.763,208.800 419.173,208.800 466.284 L 208.800 508.800 209.665 508.800 L 210.531 508.800 210.267 466.100 C 209.973 418.436,210.125 420.881,207.103 415.046 C 202.158 405.494,194.049 401.200,180.958 401.200 C 142.330 401.200,117.825 377.911,117.825 341.200 C 117.825 310.973,135.554 288.665,164.623 282.317 L 168.600 281.449 248.200 281.221 C 324.059 281.004,327.903 280.959,330.000 280.258 C 354.866 271.947,354.598 238.098,329.600 229.736 C 327.488 229.029,322.345 228.991,200.800 228.787 L 74.200 228.573 70.764 227.718 C 13.066 213.355,8.099 132.076,63.720 112.450 C 72.766 109.258,68.643 109.468,127.400 109.220 L 179.800 109.000 182.996 107.871 C 191.216 104.966,196.966 99.216,199.871 90.996 L 201.000 87.800 201.112 43.900 C 201.210 5.150,201.153 -0.000,200.625 -0.000 C 200.099 -0.000,200.012 5.213,199.898 43.500 M215.600 4.600 L 215.600 9.200 216.800 9.200 L 218.000 9.200 218.000 4.600 L 218.000 0.000 216.800 0.000 L 215.600 0.000 215.600 4.600 M232.309 45.900 L 232.193 91.800 230.934 96.460 C 225.488 116.621,211.954 131.279,192.996 137.550 C 183.458 140.705,186.843 140.534,128.800 140.784 L 77.000 141.006 74.400 141.892 C 51.873 149.572,49.538 183.893,70.815 194.607 C 76.911 197.678,63.754 197.400,203.200 197.400 C 322.717 197.400,327.963 197.430,331.800 198.140 C 372.049 205.585,392.500 249.660,371.864 284.482 C 363.645 298.353,350.268 307.881,333.680 311.681 L 329.800 312.569 250.000 312.787 C 161.128 313.029,169.213 312.760,163.400 315.676 C 153.460 320.662,148.992 329.039,149.292 342.130 C 149.515 351.867,151.155 356.219,156.716 361.840 C 162.748 367.937,166.682 369.218,180.600 369.616 C 205.714 370.334,222.403 379.254,233.424 397.849 C 241.508 411.488,241.595 412.212,241.598 465.900 C 241.600 504.172,241.666 508.800,242.213 508.800 C 242.761 508.800,242.813 504.005,242.698 463.700 L 242.570 418.600 241.521 414.400 C 234.256 385.323,211.808 368.422,180.410 368.393 C 171.592 368.385,168.787 367.898,164.023 365.550 C 145.143 356.242,145.591 325.368,164.735 316.498 C 170.007 314.056,163.512 314.245,250.800 313.996 L 330.600 313.768 334.278 312.901 C 375.858 303.102,394.536 257.041,371.148 221.976 C 363.326 210.249,349.721 200.894,335.800 197.671 C 328.605 196.005,328.229 196.000,201.442 196.000 C 65.577 196.000,77.110 196.239,71.200 193.302 C 52.939 184.229,52.843 154.334,71.046 144.898 C 76.929 141.849,73.723 142.013,127.600 142.005 C 158.710 142.000,177.423 141.845,180.376 141.569 C 208.934 138.894,231.032 116.460,233.591 87.544 C 234.451 77.824,234.115 0.000,233.213 0.000 C 232.435 0.000,232.424 0.556,232.309 45.900 M237.194 41.500 C 237.187 83.784,237.021 89.585,235.637 95.928 C 233.236 106.930,227.476 117.799,219.912 125.604 C 206.674 139.263,198.434 146.371,192.400 149.334 C 191.630 149.713,190.730 150.191,190.400 150.397 C 190.070 150.604,188.900 151.149,187.800 151.608 C 186.700 152.068,185.440 152.597,185.000 152.785 C 182.737 153.749,180.751 154.369,179.164 154.605 C 178.194 154.750,177.220 155.002,177.000 155.166 C 176.780 155.330,175.895 155.502,175.034 155.549 C 174.173 155.596,173.273 155.761,173.034 155.917 C 172.196 156.464,169.788 156.492,119.000 156.547 C 66.165 156.604,65.521 156.623,63.623 158.139 C 63.160 158.509,63.112 158.482,63.380 158.000 C 63.676 157.467,63.644 157.467,63.093 158.000 C 61.124 159.908,60.133 169.822,61.343 175.512 C 63.034 183.465,68.969 189.870,76.773 192.162 C 78.740 192.740,90.500 192.801,201.573 192.807 C 279.132 192.811,325.597 192.959,328.000 193.208 C 375.906 198.171,400.542 251.927,372.910 291.200 C 366.252 300.664,345.629 319.289,338.520 322.259 C 337.684 322.608,335.714 323.488,334.142 324.214 C 332.570 324.940,329.690 325.920,327.742 326.392 C 325.794 326.864,323.878 327.425,323.484 327.639 C 323.090 327.852,322.635 327.945,322.472 327.845 C 322.310 327.744,321.012 327.911,319.589 328.214 C 317.440 328.672,303.759 328.769,239.187 328.786 C 191.008 328.798,160.867 328.951,160.042 329.188 C 159.309 329.398,158.595 329.540,158.455 329.504 C 153.373 328.185,151.553 344.354,155.805 353.046 C 160.211 362.051,165.984 364.795,181.400 365.209 C 189.783 365.435,192.615 365.660,196.000 366.369 C 220.784 371.558,239.170 389.746,244.879 414.720 C 245.926 419.301,246.569 508.232,245.564 509.443 C 245.170 509.919,256.426 510.000,322.551 510.000 L 400.000 510.000 400.000 255.000 L 400.000 0.000 318.600 0.000 L 237.200 0.000 237.194 41.500 M215.600 36.200 L 215.600 45.200 216.800 45.200 L 218.000 45.200 218.000 36.200 L 218.000 27.200 216.800 27.200 L 215.600 27.200 215.600 36.200 M215.600 72.200 L 215.600 81.200 216.800 81.200 L 218.000 81.200 218.000 72.200 L 218.000 63.200 216.800 63.200 L 215.600 63.200 215.600 72.200 M211.550 100.527 C 210.162 103.523,207.234 107.876,204.881 110.442 L 202.825 112.684 203.746 113.550 L 204.667 114.415 206.689 112.090 C 209.390 108.985,212.028 105.149,213.552 102.111 C 215.059 99.107,215.051 99.366,213.650 98.878 C 212.537 98.490,212.471 98.542,211.550 100.527 M184.600 122.472 C 182.690 123.013,179.988 123.336,176.100 123.488 L 170.400 123.710 170.400 124.910 L 170.400 126.110 176.100 125.884 C 181.110 125.685,187.493 124.640,188.235 123.899 C 188.506 123.627,187.985 121.589,187.657 121.640 C 187.515 121.662,186.140 122.036,184.600 122.472 M78.600 123.912 C 75.475 124.132,70.550 125.299,67.000 126.662 C 62.732 128.300,62.628 128.384,63.225 129.694 L 63.687 130.710 66.339 129.508 C 69.381 128.129,75.816 126.403,77.951 126.394 C 79.838 126.386,80.495 125.934,80.332 124.757 C 80.215 123.906,80.022 123.813,78.600 123.912 M98.400 124.800 L 98.400 126.000 107.400 126.000 L 116.400 126.000 116.400 124.800 L 116.400 123.600 107.400 123.600 L 98.400 123.600 98.400 124.800 M134.400 124.800 L 134.400 126.000 143.400 126.000 L 152.400 126.000 152.400 124.800 L 152.400 123.600 143.400 123.600 L 134.400 123.600 134.400 124.800 M46.869 142.700 C 43.912 147.060,40.434 155.270,40.962 156.646 C 41.498 158.041,43.022 157.246,43.541 155.300 C 44.443 151.918,46.703 147.337,49.731 142.753 C 50.405 141.732,50.398 141.691,49.426 141.054 C 48.435 140.404,48.421 140.413,46.869 142.700 M39.747 176.300 C 39.863 176.905,40.078 178.210,40.227 179.200 C 40.854 183.390,44.376 192.400,45.387 192.400 C 47.100 192.400,47.198 191.462,45.791 188.529 C 44.378 185.583,42.404 179.382,42.395 177.855 C 42.382 175.894,41.945 175.200,40.722 175.200 C 39.644 175.200,39.556 175.300,39.747 176.300 M58.242 205.392 C 57.583 206.397,57.585 206.400,59.860 207.856 C 63.449 210.151,73.678 214.180,74.205 213.505 C 75.348 212.042,74.729 211.329,71.511 210.399 C 68.332 209.480,62.676 206.901,60.151 205.218 L 58.901 204.386 58.242 205.392 M92.800 213.200 L 92.800 214.400 101.600 214.400 L 110.400 214.400 110.400 213.200 L 110.400 212.000 101.600 212.000 L 92.800 212.000 92.800 213.200 M128.800 213.200 L 128.800 214.400 137.600 214.400 L 146.400 214.400 146.400 213.200 L 146.400 212.000 137.600 212.000 L 128.800 212.000 128.800 213.200 M164.800 213.200 L 164.800 214.400 173.600 214.400 L 182.400 214.400 182.400 213.200 L 182.400 212.000 173.600 212.000 L 164.800 212.000 164.800 213.200 M200.800 213.200 L 200.800 214.400 209.600 214.400 L 218.400 214.400 218.400 213.200 L 218.400 212.000 209.600 212.000 L 200.800 212.000 200.800 213.200 M236.800 213.200 L 236.800 214.400 245.600 214.400 L 254.400 214.400 254.400 213.200 L 254.400 212.000 245.600 212.000 L 236.800 212.000 236.800 213.200 M272.800 213.200 L 272.800 214.400 281.600 214.400 L 290.400 214.400 290.400 213.200 L 290.400 212.000 281.600 212.000 L 272.800 212.000 272.800 213.200 M308.800 213.200 L 308.800 214.400 317.555 214.400 L 326.309 214.400 326.485 213.200 L 326.661 212.000 317.731 212.000 L 308.800 212.000 308.800 213.200 M343.554 218.886 C 343.136 219.667,343.214 219.870,344.206 220.586 C 348.290 223.537,351.515 226.390,353.467 228.779 C 355.660 231.464,355.747 231.522,356.653 230.929 C 357.934 230.089,357.544 229.457,352.843 224.763 C 347.182 219.109,344.382 217.338,343.554 218.886 M363.269 247.486 C 362.654 247.604,362.415 247.861,362.562 248.246 C 363.131 249.729,363.268 256.446,362.798 259.800 C 362.068 264.998,362.059 264.890,363.271 265.222 C 364.330 265.512,364.348 265.483,364.855 262.658 C 365.710 257.896,365.448 247.068,364.482 247.254 C 364.327 247.284,363.781 247.389,363.269 247.486 M352.400 282.534 C 349.953 285.239,346.124 288.364,343.226 290.024 C 340.515 291.577,340.574 291.485,341.509 292.693 L 342.200 293.586 344.800 291.948 C 348.350 289.710,352.481 286.292,354.391 284.011 L 355.976 282.117 355.088 281.331 L 354.200 280.545 352.400 282.534 M166.400 296.852 C 162.116 297.749,161.931 297.851,162.269 299.144 C 162.538 300.171,162.195 300.177,167.735 299.042 C 169.536 298.673,172.813 298.400,175.435 298.400 L 180.000 298.400 180.000 297.200 L 180.000 296.000 175.100 296.028 C 171.851 296.047,168.920 296.325,166.400 296.852 M198.000 297.200 L 198.000 298.400 207.000 298.400 L 216.000 298.400 216.000 297.200 L 216.000 296.000 207.000 296.000 L 198.000 296.000 198.000 297.200 M234.000 297.200 L 234.000 298.400 243.000 298.400 L 252.000 298.400 252.000 297.200 L 252.000 296.000 243.000 296.000 L 234.000 296.000 234.000 297.200 M270.000 297.200 L 270.000 298.400 279.000 298.400 L 288.000 298.400 288.000 297.200 L 288.000 296.000 279.000 296.000 L 270.000 296.000 270.000 297.200 M306.000 297.208 L 306.000 298.415 314.900 298.308 L 323.800 298.200 323.927 297.100 L 324.053 296.000 315.027 296.000 L 306.000 296.000 306.000 297.208 M143.537 309.900 C 140.469 313.130,135.017 321.625,135.661 322.173 C 136.049 322.503,137.681 323.247,137.765 323.132 C 137.818 323.060,138.107 322.387,138.406 321.637 C 139.264 319.485,142.674 314.445,145.232 311.550 C 147.455 309.032,147.536 308.866,146.855 308.250 C 145.881 307.368,145.997 307.311,143.537 309.900 M132.151 344.867 C 132.609 352.410,134.183 358.486,135.584 358.120 C 136.845 357.790,136.854 357.594,135.789 353.396 C 135.202 351.080,134.691 347.633,134.538 344.943 L 134.278 340.400 133.079 340.400 L 131.880 340.400 132.151 344.867 M145.455 373.139 C 144.322 374.391,150.132 379.169,156.492 382.217 C 159.746 383.777,160.214 383.863,160.557 382.967 C 161.004 381.803,160.815 381.616,157.500 379.952 C 153.721 378.055,151.461 376.583,148.557 374.127 C 146.199 372.134,146.328 372.175,145.455 373.139 M178.400 385.078 L 178.400 386.280 183.700 386.512 C 186.615 386.639,190.493 387.049,192.317 387.422 C 195.961 388.167,195.936 388.171,196.091 386.775 C 196.235 385.487,191.856 384.544,183.900 384.149 L 178.400 383.877 178.400 385.078 M211.669 396.038 C 211.191 396.804,211.350 397.089,213.528 399.356 C 215.947 401.876,219.423 406.842,220.374 409.137 C 220.899 410.404,221.704 410.702,222.774 410.024 C 223.895 409.315,220.239 403.207,215.474 397.826 C 212.959 394.986,212.470 394.756,211.669 396.038 M224.800 436.800 L 224.800 445.600 226.000 445.600 L 227.200 445.600 227.200 436.800 L 227.200 428.000 226.000 428.000 L 224.800 428.000 224.800 436.800 M224.800 472.800 L 224.800 481.600 226.000 481.600 L 227.200 481.600 227.200 472.800 L 227.200 464.000 226.000 464.000 L 224.800 464.000 224.800 472.800 M224.800 504.400 L 224.800 508.800 226.000 508.800 L 227.200 508.800 227.200 504.400 L 227.200 500.000 226.000 500.000 L 224.800 500.000 224.800 504.400 " stroke="none" fill="#fbfbfb" fill-rule="evenodd"></path><path id="path2" d="M193.269 3.809 C 191.318 5.891,190.496 7.061,190.602 7.609 C 190.685 8.044,190.629 8.400,190.477 8.400 C 190.325 8.400,190.247 27.391,190.304 50.602 C 190.419 97.582,190.581 94.475,187.747 99.591 L 186.754 101.382 187.877 100.406 C 190.340 98.264,192.849 94.424,193.471 91.845 C 194.047 89.453,194.129 85.878,194.260 57.600 C 194.338 40.770,194.446 22.022,194.501 15.938 C 194.559 9.494,194.450 4.968,194.242 5.098 C 193.473 5.573,194.511 2.943,195.503 1.900 C 196.079 1.295,196.446 0.800,196.319 0.800 C 196.193 0.800,194.820 2.154,193.269 3.809 M40.800 125.000 C 39.828 125.990,39.123 126.800,39.233 126.800 C 39.343 126.800,40.228 125.990,41.200 125.000 C 42.172 124.010,42.877 123.200,42.767 123.200 C 42.657 123.200,41.772 124.010,40.800 125.000 M31.120 130.904 C 18.039 145.127,12.333 163.113,14.592 183.000 C 15.344 189.614,16.900 196.967,17.646 197.429 C 17.822 197.537,17.857 197.908,17.724 198.253 C 17.592 198.598,17.657 198.998,17.869 199.140 C 18.404 199.500,20.000 202.911,20.000 203.693 C 20.000 204.045,20.135 204.393,20.300 204.467 C 20.465 204.540,20.954 205.320,21.386 206.200 C 21.818 207.080,23.052 209.150,24.127 210.800 C 25.203 212.450,26.114 213.985,26.152 214.211 C 26.190 214.437,26.801 215.176,27.510 215.854 C 28.220 216.532,28.800 217.382,28.800 217.743 C 28.800 218.104,28.996 218.400,29.236 218.400 C 29.814 218.400,32.000 220.477,31.786 220.823 C 31.694 220.972,31.975 221.415,32.409 221.809 C 32.844 222.202,33.200 222.434,33.200 222.324 C 33.200 222.215,34.145 222.996,35.300 224.060 C 36.455 225.124,37.524 225.996,37.675 225.998 C 37.827 225.999,38.542 226.540,39.264 227.200 C 39.987 227.860,40.853 228.403,41.189 228.406 C 41.730 228.412,41.731 228.457,41.200 228.800 C 40.688 229.131,40.704 229.189,41.307 229.194 C 41.696 229.197,43.316 229.987,44.907 230.948 C 46.498 231.909,48.208 232.822,48.706 232.977 C 49.204 233.131,49.515 233.414,49.397 233.605 C 49.279 233.795,49.502 233.938,49.891 233.921 C 50.281 233.905,51.140 234.126,51.800 234.412 C 52.460 234.699,53.090 234.963,53.200 235.000 C 53.552 235.118,55.352 235.884,57.000 236.616 C 57.880 237.008,59.050 237.375,59.600 237.432 C 62.478 237.733,64.363 238.136,64.191 238.414 C 64.086 238.585,64.314 238.649,64.699 238.555 C 65.085 238.461,66.570 238.641,68.000 238.954 C 70.257 239.449,190.263 239.759,318.524 239.602 C 319.362 239.601,319.951 239.755,319.834 239.945 C 319.717 240.135,320.021 240.262,320.510 240.227 C 321.678 240.145,326.000 241.570,326.000 242.037 C 326.000 242.237,326.135 242.371,326.300 242.336 C 326.860 242.218,327.997 242.882,327.794 243.209 C 327.684 243.388,328.135 243.654,328.797 243.799 C 329.458 243.945,330.000 244.219,330.000 244.410 C 330.000 244.600,330.805 245.511,331.789 246.433 C 332.774 247.356,333.483 248.266,333.366 248.455 C 333.249 248.645,333.402 248.800,333.705 248.800 C 334.195 248.800,336.050 251.886,336.042 252.689 C 336.040 252.860,336.314 253.420,336.650 253.932 C 336.986 254.445,337.171 255.098,337.062 255.384 C 336.952 255.669,337.064 256.104,337.311 256.351 C 337.934 256.974,337.925 265.031,337.299 266.800 C 337.027 267.570,336.799 268.333,336.792 268.495 C 336.786 268.657,336.260 269.793,335.624 271.019 L 334.467 273.248 336.081 271.916 C 337.490 270.752,340.807 265.600,340.147 265.600 C 340.012 265.600,340.102 265.359,340.347 265.063 C 341.100 264.157,342.099 257.961,341.777 256.200 C 341.616 255.320,341.429 253.896,341.360 253.035 C 341.292 252.174,341.058 251.359,340.840 251.225 C 340.622 251.090,340.347 250.434,340.229 249.767 C 339.977 248.335,338.943 246.167,338.042 245.182 C 335.772 242.700,334.102 241.076,333.469 240.734 C 333.067 240.516,332.822 240.120,332.924 239.853 C 333.033 239.569,332.727 239.335,332.185 239.290 C 331.675 239.248,330.338 238.671,329.212 238.007 C 328.086 237.343,326.823 236.800,326.406 236.800 C 325.989 236.800,325.543 236.631,325.416 236.425 C 325.076 235.875,328.672 235.912,259.600 235.748 C 61.610 235.277,67.605 235.318,67.598 234.463 C 67.596 234.318,66.911 234.175,66.074 234.145 C 65.237 234.114,63.708 233.705,62.676 233.235 C 61.644 232.765,60.215 232.269,59.500 232.134 C 58.785 231.998,58.020 231.754,57.800 231.590 C 57.580 231.426,56.815 231.167,56.100 231.014 C 55.385 230.862,54.800 230.541,54.800 230.302 C 54.800 230.062,54.688 229.979,54.550 230.116 C 54.239 230.428,51.200 228.909,51.200 228.442 C 51.200 228.254,50.703 228.001,50.095 227.879 C 49.487 227.757,48.542 227.269,47.995 226.794 C 47.448 226.318,46.420 225.687,45.712 225.390 C 45.004 225.094,43.783 224.210,42.999 223.425 C 42.215 222.641,41.418 222.000,41.228 222.000 C 40.716 222.000,33.600 214.995,33.600 214.490 C 33.600 214.253,33.070 213.640,32.423 213.129 C 31.150 212.124,28.800 209.059,28.800 208.403 C 28.800 208.182,28.635 208.000,28.433 208.000 C 28.231 208.000,27.658 207.100,27.161 206.000 C 26.664 204.900,26.140 204.000,25.997 204.000 C 25.670 204.000,24.308 200.970,23.166 197.700 C 22.686 196.325,22.154 195.200,21.985 195.200 C 21.495 195.200,20.067 190.044,19.769 187.200 C 19.620 185.770,19.352 184.507,19.175 184.393 C 18.461 183.934,17.870 171.138,18.306 165.600 C 18.978 157.065,19.566 154.430,22.454 147.000 C 23.309 144.800,24.007 142.868,24.004 142.706 C 24.002 142.544,24.570 141.464,25.266 140.306 C 28.209 135.414,30.275 132.440,32.498 129.900 C 35.932 125.976,35.084 126.593,31.120 130.904 M211.600 133.262 C 209.220 135.416,202.852 139.564,199.600 141.080 C 195.220 143.120,194.095 143.600,193.685 143.600 C 193.469 143.600,192.777 143.867,192.148 144.193 C 191.519 144.519,190.014 144.982,188.802 145.222 C 187.591 145.462,185.970 145.831,185.200 146.042 C 184.430 146.253,183.170 146.541,182.400 146.682 C 181.630 146.822,158.140 146.990,130.200 147.055 C 79.857 147.172,78.078 147.217,73.400 148.498 C 71.233 149.091,67.700 151.233,66.022 152.972 C 64.637 154.406,64.739 154.877,66.211 153.849 C 67.073 153.246,70.299 152.084,72.200 151.691 C 73.878 151.344,86.674 151.220,134.800 151.085 C 157.790 151.021,177.050 150.837,177.600 150.676 C 178.150 150.516,179.590 150.225,180.800 150.031 C 191.261 148.349,204.549 141.198,212.378 133.037 C 214.205 131.132,213.834 131.240,211.600 133.262 M363.983 213.300 C 365.641 215.066,366.000 215.384,366.000 215.083 C 366.000 215.019,365.145 214.164,364.100 213.183 L 362.200 211.400 363.983 213.300 M212.100 277.100 C 232.505 277.157,265.895 277.157,286.300 277.100 C 306.705 277.043,290.010 276.996,249.200 276.996 C 208.390 276.996,191.695 277.043,212.100 277.100 M362.778 295.900 L 361.400 297.400 362.900 296.022 C 363.725 295.263,364.400 294.588,364.400 294.522 C 364.400 294.216,364.062 294.504,362.778 295.900 M133.178 297.500 L 131.800 299.000 133.300 297.622 C 134.696 296.338,134.984 296.000,134.678 296.000 C 134.612 296.000,133.937 296.675,133.178 297.500 M125.781 300.900 L 124.200 302.600 125.900 301.019 C 127.481 299.548,127.784 299.200,127.481 299.200 C 127.416 299.200,126.651 299.965,125.781 300.900 M121.771 305.300 C 118.867 308.435,115.414 313.666,113.212 318.263 C 112.281 320.208,111.357 322.113,111.159 322.495 C 110.962 322.877,110.800 323.360,110.800 323.569 C 110.800 323.777,110.642 324.365,110.448 324.874 C 110.254 325.383,110.067 325.932,110.032 326.094 C 109.997 326.256,109.709 327.125,109.392 328.024 C 108.052 331.819,106.939 340.464,106.707 348.863 C 106.648 350.988,106.735 352.518,106.900 352.263 C 107.065 352.008,107.205 352.700,107.211 353.800 C 107.232 357.947,107.410 360.399,107.687 360.400 C 107.846 360.400,107.871 360.670,107.745 361.000 C 107.618 361.330,107.674 361.600,107.870 361.600 C 108.205 361.600,108.436 362.688,108.522 364.674 C 108.543 365.155,108.703 365.460,108.877 365.352 C 109.052 365.244,109.160 365.575,109.118 366.087 C 109.075 366.599,109.443 367.849,109.935 368.865 C 110.427 369.881,110.900 371.081,110.987 371.530 C 111.073 371.980,111.345 372.723,111.591 373.182 C 111.836 373.641,111.911 374.221,111.757 374.470 C 111.594 374.733,111.654 374.814,111.899 374.662 C 112.398 374.354,113.312 376.694,112.933 377.308 C 112.791 377.538,112.868 377.605,113.107 377.458 C 113.456 377.242,115.222 380.332,115.532 381.700 C 115.569 381.865,115.881 382.315,116.225 382.700 C 117.445 384.065,119.200 386.515,119.200 386.852 C 119.200 387.039,119.785 387.753,120.500 388.437 C 121.215 389.121,121.800 389.978,121.801 390.341 C 121.801 390.703,121.986 391.000,122.211 391.000 C 122.437 391.000,123.446 391.810,124.453 392.800 C 127.290 395.587,131.200 399.123,131.200 398.901 C 131.200 398.792,131.468 398.924,131.796 399.196 C 132.123 399.468,132.275 399.878,132.134 400.107 C 131.992 400.336,132.054 400.414,132.271 400.279 C 132.489 400.145,133.297 400.464,134.069 400.988 C 135.896 402.230,138.033 403.439,141.000 404.909 C 142.320 405.564,143.643 406.293,143.939 406.531 C 144.235 406.768,144.796 407.011,145.184 407.071 C 146.359 407.250,148.000 407.960,148.001 408.290 C 148.001 408.461,148.586 408.641,149.300 408.692 C 150.014 408.742,150.824 409.092,151.099 409.468 C 151.375 409.845,151.600 409.954,151.600 409.712 C 151.600 409.269,152.086 409.272,153.200 409.721 C 153.966 410.031,158.063 410.784,160.400 411.046 C 161.390 411.157,162.650 411.351,163.200 411.478 C 163.992 411.660,175.316 411.984,181.324 411.998 C 181.942 411.999,182.357 412.145,182.247 412.323 C 182.138 412.501,182.768 412.689,183.648 412.741 C 185.404 412.844,190.263 415.279,190.100 415.974 C 190.045 416.208,190.270 416.400,190.600 416.400 C 190.930 416.400,191.200 416.610,191.200 416.867 C 191.200 417.123,191.319 417.214,191.464 417.069 C 191.610 416.924,191.928 417.209,192.171 417.702 C 192.415 418.196,193.006 418.773,193.485 418.985 C 193.964 419.197,194.461 419.790,194.590 420.302 C 194.718 420.814,194.989 421.130,195.192 421.005 C 195.625 420.738,196.490 422.177,196.119 422.547 C 195.980 422.686,196.087 422.800,196.356 422.800 C 197.013 422.800,198.468 426.158,198.159 426.962 C 198.025 427.313,198.085 427.600,198.294 427.600 C 199.496 427.600,199.600 431.000,199.600 470.346 L 199.600 510.000 201.354 510.000 L 203.109 510.000 203.380 499.100 C 203.812 481.732,203.463 427.702,202.906 425.792 C 202.648 424.908,202.392 423.513,202.337 422.692 C 202.277 421.801,202.031 421.200,201.726 421.200 C 201.445 421.200,201.102 420.750,200.964 420.200 C 200.826 419.650,200.553 419.200,200.357 419.200 C 200.160 419.200,200.000 418.821,200.000 418.358 C 200.000 417.340,197.755 414.400,196.978 414.400 C 196.673 414.400,196.025 413.860,195.537 413.200 C 195.049 412.540,194.441 412.000,194.186 412.000 C 193.931 412.000,193.307 411.640,192.800 411.200 C 192.293 410.760,191.633 410.400,191.335 410.400 C 191.036 410.400,190.484 410.040,190.107 409.600 C 189.730 409.160,189.237 408.803,189.011 408.806 C 188.785 408.809,188.870 408.987,189.200 409.200 C 189.530 409.413,189.615 409.591,189.389 409.594 C 189.163 409.597,188.598 409.334,188.134 409.009 C 187.059 408.256,184.873 408.056,175.000 407.811 C 166.009 407.588,161.973 407.177,157.600 406.040 C 153.248 404.908,152.377 404.611,150.389 403.576 C 149.405 403.064,148.420 402.627,148.200 402.606 C 147.980 402.584,147.350 402.369,146.800 402.127 C 146.250 401.885,145.046 401.375,144.124 400.994 C 143.202 400.612,142.352 400.052,142.236 399.750 C 142.120 399.447,141.687 399.200,141.275 399.200 C 140.862 399.200,140.001 398.750,139.362 398.200 C 138.723 397.651,137.975 397.201,137.700 397.200 C 137.425 397.200,137.200 397.031,137.200 396.825 C 137.200 396.618,136.043 395.689,134.630 394.759 C 133.216 393.830,131.971 392.733,131.864 392.323 C 131.757 391.913,131.511 391.627,131.319 391.689 C 130.950 391.806,126.600 387.635,126.600 387.164 C 126.600 387.013,125.655 385.960,124.500 384.823 C 123.345 383.686,122.398 382.541,122.396 382.278 C 122.393 382.015,121.675 380.900,120.800 379.800 C 119.925 378.700,119.207 377.492,119.204 377.116 C 119.202 376.739,118.863 376.109,118.452 375.716 C 118.040 375.322,117.460 374.280,117.163 373.400 C 116.865 372.520,116.302 371.371,115.911 370.846 C 115.520 370.321,115.200 369.506,115.200 369.035 C 115.200 368.564,114.925 367.786,114.590 367.307 C 114.254 366.827,113.796 365.392,113.571 364.118 C 113.347 362.843,113.087 361.573,112.993 361.296 C 112.899 361.018,112.802 360.658,112.777 360.496 C 112.752 360.333,112.547 359.977,112.321 359.705 C 112.095 359.433,112.019 358.929,112.151 358.584 C 112.289 358.224,112.223 358.062,111.995 358.203 C 111.767 358.344,111.588 357.888,111.571 357.124 C 111.556 356.396,111.428 355.080,111.286 354.200 C 110.803 351.182,110.964 333.089,111.486 331.800 C 111.754 331.140,112.062 329.790,112.172 328.800 C 112.467 326.137,114.317 320.323,115.982 316.828 C 116.147 316.483,116.709 315.300,117.233 314.200 C 118.619 311.285,121.538 306.458,123.099 304.500 C 125.056 302.044,124.446 302.411,121.771 305.300 M359.015 305.576 C 357.775 307.582,343.522 315.486,339.553 316.369 C 338.536 316.595,337.186 316.984,336.553 317.233 C 330.602 319.570,327.901 319.640,245.600 319.578 C 166.152 319.517,168.320 319.469,164.495 321.390 C 163.389 321.945,162.299 322.400,162.074 322.400 C 161.543 322.400,157.112 326.445,157.365 326.698 C 157.471 326.804,158.152 326.525,158.879 326.077 C 163.703 323.102,162.008 323.157,246.200 323.221 C 310.657 323.271,321.581 323.196,325.200 322.681 C 336.021 321.140,346.565 316.507,355.000 309.588 C 357.828 307.268,359.946 305.200,359.493 305.200 C 359.358 305.200,359.143 305.369,359.015 305.576 M212.700 314.300 C 232.995 314.357,266.205 314.357,286.500 314.300 C 306.795 314.243,290.190 314.196,249.600 314.196 C 209.010 314.196,192.405 314.243,212.700 314.300 M133.183 384.900 C 134.841 386.666,135.200 386.984,135.200 386.683 C 135.200 386.619,134.345 385.764,133.300 384.783 L 131.400 383.000 133.183 384.900 M224.400 386.600 C 225.146 387.370,225.847 388.000,225.957 388.000 C 226.067 388.000,225.546 387.370,224.800 386.600 C 224.054 385.830,223.353 385.200,223.243 385.200 C 223.133 385.200,223.654 385.830,224.400 386.600 " stroke="none" fill="#d4d6dd" fill-rule="evenodd"></path><path id="path3" d="M195.721 1.556 C 194.525 2.996,193.440 5.593,194.242 5.098 C 194.450 4.968,194.559 9.494,194.501 15.938 C 194.446 22.022,194.338 40.770,194.260 57.600 C 194.129 85.886,194.047 89.451,193.470 91.848 C 193.244 92.789,191.365 96.645,190.654 97.629 C 190.404 97.975,190.843 97.582,191.629 96.757 C 196.917 91.206,196.787 92.558,196.794 42.924 L 196.800 0.448 198.300 0.291 L 199.800 0.134 198.400 0.074 C 197.228 0.024,196.791 0.266,195.721 1.556 M208.087 0.299 L 215.174 0.418 215.287 4.909 L 215.400 9.400 216.800 9.400 C 218.076 9.400,218.205 9.294,218.258 8.200 C 218.313 7.060,218.307 7.055,218.131 8.100 C 217.979 9.008,217.742 9.200,216.773 9.200 L 215.600 9.200 215.600 4.600 L 215.600 0.000 208.300 0.090 L 201.000 0.180 208.087 0.299 M218.060 3.500 C 218.123 7.160,218.298 6.750,218.488 2.499 C 218.550 1.124,218.465 -0.001,218.300 -0.001 C 218.135 -0.000,218.027 1.575,218.060 3.500 M222.118 0.298 C 223.833 0.373,226.533 0.372,228.118 0.297 C 229.703 0.221,228.300 0.159,225.000 0.160 C 221.700 0.161,220.403 0.222,222.118 0.298 M234.705 0.283 C 235.202 0.379,235.922 0.375,236.305 0.275 C 236.687 0.175,236.280 0.096,235.400 0.101 C 234.520 0.105,234.207 0.187,234.705 0.283 M218.171 36.000 C 218.171 40.950,218.228 42.975,218.299 40.500 C 218.369 38.025,218.369 33.975,218.299 31.500 C 218.228 29.025,218.171 31.050,218.171 36.000 M215.389 36.600 L 215.400 45.400 216.600 45.437 C 217.716 45.472,217.724 45.463,216.708 45.313 L 215.615 45.150 215.496 36.475 L 215.377 27.800 215.389 36.600 M201.389 57.000 C 201.389 71.740,201.439 77.712,201.500 70.271 C 201.561 62.830,201.561 50.770,201.500 43.471 C 201.439 36.172,201.389 42.260,201.389 57.000 M215.388 72.300 L 215.400 81.400 216.800 81.452 C 218.186 81.504,218.187 81.503,216.907 81.327 L 215.615 81.150 215.496 72.175 L 215.377 63.200 215.388 72.300 M218.170 71.800 C 218.171 76.640,218.229 78.565,218.299 76.078 C 218.369 73.591,218.369 69.631,218.298 67.278 C 218.228 64.925,218.170 66.960,218.170 71.800 M91.300 105.100 C 98.065 105.161,109.135 105.161,115.900 105.100 C 122.665 105.038,117.130 104.988,103.600 104.988 C 90.070 104.988,84.535 105.038,91.300 105.100 M96.870 107.900 C 107.358 107.959,124.638 107.959,135.270 107.900 C 145.901 107.841,137.320 107.792,116.200 107.792 C 95.080 107.792,86.381 107.841,96.870 107.900 M105.669 109.500 C 118.577 109.558,139.817 109.558,152.869 109.500 C 165.921 109.441,155.360 109.394,129.400 109.394 C 103.440 109.393,92.761 109.441,105.669 109.500 M116.368 124.900 C 116.249 125.760,116.310 126.250,116.512 126.048 C 116.705 125.855,116.798 125.181,116.719 124.549 C 116.587 123.491,116.559 123.519,116.368 124.900 M152.454 124.692 L 152.400 125.985 143.300 126.100 L 134.200 126.216 143.313 126.308 C 153.122 126.407,153.084 126.415,152.686 124.329 C 152.550 123.618,152.496 123.703,152.454 124.692 M102.478 126.298 C 104.831 126.369,108.791 126.369,111.278 126.299 C 113.765 126.229,111.840 126.171,107.000 126.170 C 102.160 126.170,100.125 126.228,102.478 126.298 M172.500 126.294 C 173.545 126.376,175.255 126.376,176.300 126.294 C 177.345 126.212,176.490 126.144,174.400 126.144 C 172.310 126.144,171.455 126.212,172.500 126.294 M31.926 130.500 C 29.651 133.198,23.993 141.916,24.004 142.706 C 24.007 142.868,23.309 144.800,22.454 147.000 C 19.566 154.430,18.978 157.065,18.306 165.600 C 17.870 171.138,18.461 183.934,19.175 184.393 C 19.352 184.507,19.620 185.770,19.769 187.200 C 20.067 190.044,21.495 195.200,21.985 195.200 C 22.154 195.200,22.686 196.325,23.166 197.700 C 24.308 200.970,25.670 204.000,25.997 204.000 C 26.140 204.000,26.664 204.900,27.161 206.000 C 27.658 207.100,28.231 208.000,28.433 208.000 C 28.635 208.000,28.800 208.182,28.800 208.403 C 28.800 209.059,31.150 212.124,32.423 213.129 C 33.070 213.640,33.600 214.253,33.600 214.490 C 33.600 214.995,40.716 222.000,41.228 222.000 C 41.418 222.000,42.215 222.641,42.999 223.425 C 43.783 224.210,45.004 225.094,45.712 225.390 C 46.420 225.687,47.448 226.318,47.995 226.794 C 48.542 227.269,49.487 227.757,50.095 227.879 C 50.703 228.001,51.200 228.254,51.200 228.442 C 51.200 228.909,54.239 230.428,54.550 230.116 C 54.688 229.979,54.800 230.062,54.800 230.302 C 54.800 230.541,55.385 230.862,56.100 231.014 C 56.815 231.167,57.580 231.426,57.800 231.590 C 58.020 231.754,58.785 231.998,59.500 232.134 C 60.215 232.269,61.644 232.765,62.676 233.235 C 63.708 233.705,65.237 234.114,66.074 234.145 C 66.911 234.175,67.596 234.318,67.598 234.463 C 67.605 235.318,61.610 235.277,259.600 235.748 C 328.672 235.912,325.076 235.875,325.416 236.425 C 325.543 236.631,325.989 236.800,326.406 236.800 C 326.823 236.800,328.086 237.343,329.212 238.007 C 330.338 238.671,331.675 239.248,332.185 239.290 C 332.727 239.335,333.033 239.569,332.924 239.853 C 332.822 240.120,333.067 240.516,333.469 240.734 C 334.102 241.076,335.772 242.700,338.042 245.182 C 338.943 246.167,339.977 248.335,340.229 249.767 C 340.347 250.434,340.622 251.090,340.840 251.225 C 341.058 251.359,341.292 252.174,341.360 253.035 C 341.429 253.896,341.616 255.320,341.777 256.200 C 342.099 257.961,341.100 264.157,340.347 265.063 C 340.102 265.359,340.012 265.600,340.146 265.600 C 340.280 265.600,339.848 266.635,339.186 267.900 L 337.982 270.200 339.429 268.600 C 349.097 257.905,343.640 239.472,329.251 234.221 C 327.003 233.401,326.830 233.400,200.600 233.189 L 74.200 232.977 70.337 232.088 C 52.404 227.960,38.493 217.985,29.190 202.583 C 16.661 181.841,17.806 150.922,31.827 131.380 C 34.343 127.873,34.375 127.597,31.926 130.500 M209.578 134.209 C 203.005 138.849,193.802 142.564,185.269 144.022 C 180.935 144.763,178.426 144.800,132.050 144.800 C 72.466 144.800,74.269 144.625,67.737 151.052 C 66.425 152.343,65.902 152.924,66.576 152.341 C 68.356 150.802,71.558 148.998,73.400 148.496 C 78.092 147.217,79.870 147.172,130.200 147.055 C 158.140 146.990,181.630 146.822,182.400 146.682 C 183.170 146.541,184.430 146.253,185.200 146.042 C 185.970 145.831,187.591 145.462,188.802 145.222 C 190.014 144.982,191.519 144.519,192.148 144.193 C 192.777 143.867,193.469 143.600,193.685 143.600 C 194.095 143.600,195.220 143.120,199.600 141.080 C 202.664 139.652,209.127 135.476,211.400 133.456 C 213.587 131.511,213.136 131.698,209.578 134.209 M56.131 167.000 C 56.133 168.540,56.205 169.121,56.292 168.291 C 56.379 167.461,56.377 166.201,56.289 165.491 C 56.200 164.781,56.129 165.460,56.131 167.000 M23.340 168.800 C 23.340 170.670,23.409 171.435,23.493 170.500 C 23.577 169.565,23.577 168.035,23.493 167.100 C 23.409 166.165,23.340 166.930,23.340 168.800 M57.744 169.200 C 57.744 171.290,57.812 172.145,57.894 171.100 C 57.976 170.055,57.976 168.345,57.894 167.300 C 57.812 166.255,57.744 167.110,57.744 169.200 M60.540 168.800 C 60.540 170.670,60.609 171.435,60.693 170.500 C 60.777 169.565,60.777 168.035,60.693 167.100 C 60.609 166.165,60.540 166.930,60.540 168.800 M96.522 211.899 C 98.899 211.970,102.679 211.969,104.922 211.898 C 107.165 211.827,105.220 211.769,100.600 211.769 C 95.980 211.770,94.145 211.828,96.522 211.899 M134.100 211.898 C 136.025 211.971,139.175 211.971,141.100 211.898 C 143.025 211.825,141.450 211.765,137.600 211.765 C 133.750 211.765,132.175 211.825,134.100 211.898 M169.000 211.876 C 175.872 212.162,182.801 212.175,182.801 211.900 C 182.800 211.735,179.065 211.636,174.500 211.679 C 169.935 211.723,167.460 211.812,169.000 211.876 M205.300 211.898 C 207.665 211.969,211.535 211.969,213.900 211.898 C 216.265 211.828,214.330 211.770,209.600 211.770 C 204.870 211.770,202.935 211.828,205.300 211.898 M240.522 211.899 C 242.899 211.970,246.679 211.969,248.922 211.898 C 251.165 211.827,249.220 211.769,244.600 211.769 C 239.980 211.770,238.145 211.828,240.522 211.899 M278.100 211.898 C 280.025 211.971,283.175 211.971,285.100 211.898 C 287.025 211.825,285.450 211.765,281.600 211.765 C 277.750 211.765,276.175 211.825,278.100 211.898 M313.500 211.898 C 315.315 211.972,318.285 211.972,320.100 211.898 C 321.915 211.823,320.430 211.763,316.800 211.763 C 313.170 211.763,311.685 211.823,313.500 211.898 M138.000 214.400 L 129.400 214.624 137.876 214.712 C 143.193 214.767,146.445 214.651,146.600 214.400 C 146.736 214.180,146.792 214.040,146.724 214.088 C 146.656 214.136,142.730 214.277,138.000 214.400 M325.200 214.400 L 323.800 214.695 325.076 214.747 C 325.778 214.776,326.464 214.620,326.600 214.400 C 326.736 214.180,326.792 214.024,326.724 214.053 C 326.656 214.082,325.970 214.238,325.200 214.400 M97.100 214.699 C 99.575 214.769,103.625 214.769,106.100 214.699 C 108.575 214.628,106.550 214.571,101.600 214.571 C 96.650 214.571,94.625 214.628,97.100 214.699 M169.100 214.699 C 171.575 214.769,175.625 214.769,178.100 214.699 C 180.575 214.628,178.550 214.571,173.600 214.571 C 168.650 214.571,166.625 214.628,169.100 214.699 M205.100 214.699 C 207.575 214.769,211.625 214.769,214.100 214.699 C 216.575 214.628,214.550 214.571,209.600 214.571 C 204.650 214.571,202.625 214.628,205.100 214.699 M140.300 228.700 C 174.015 228.756,229.185 228.756,262.900 228.700 C 296.615 228.644,269.030 228.597,201.600 228.597 C 134.170 228.597,106.585 228.644,140.300 228.700 M278.100 230.300 C 286.405 230.360,299.995 230.360,308.300 230.300 C 316.605 230.239,309.810 230.190,293.200 230.190 C 276.590 230.190,269.795 230.239,278.100 230.300 M384.093 252.000 C 384.093 252.770,384.175 253.085,384.276 252.700 C 384.376 252.315,384.376 251.685,384.276 251.300 C 384.175 250.915,384.093 251.230,384.093 252.000 M379.731 255.000 C 379.733 256.540,379.805 257.121,379.892 256.291 C 379.979 255.461,379.977 254.201,379.889 253.491 C 379.800 252.781,379.729 253.460,379.731 255.000 M362.901 255.000 C 362.905 255.880,362.987 256.193,363.083 255.695 C 363.179 255.198,363.175 254.478,363.075 254.095 C 362.975 253.713,362.896 254.120,362.901 255.000 M381.314 258.200 C 381.317 259.300,381.395 259.703,381.487 259.095 C 381.579 258.486,381.577 257.586,381.482 257.095 C 381.387 256.603,381.311 257.100,381.314 258.200 M384.093 258.000 C 384.093 258.770,384.175 259.085,384.276 258.700 C 384.376 258.315,384.376 257.685,384.276 257.300 C 384.175 256.915,384.093 257.230,384.093 258.000 M340.975 273.700 L 339.800 275.000 341.100 273.825 C 341.815 273.179,342.400 272.594,342.400 272.525 C 342.400 272.216,342.070 272.488,340.975 273.700 M212.300 279.900 C 232.815 279.957,266.385 279.957,286.900 279.900 C 307.415 279.843,290.630 279.796,249.600 279.796 C 208.570 279.796,191.785 279.843,212.300 279.900 M323.700 281.476 C 324.085 281.576,324.715 281.576,325.100 281.476 C 325.485 281.375,325.170 281.293,324.400 281.293 C 323.630 281.293,323.315 281.375,323.700 281.476 M350.778 283.900 L 349.400 285.400 350.900 284.022 C 351.725 283.263,352.400 282.588,352.400 282.522 C 352.400 282.216,352.062 282.504,350.778 283.900 M173.315 295.896 C 174.588 295.976,176.568 295.975,177.715 295.894 C 178.862 295.814,177.820 295.749,175.400 295.750 C 172.980 295.751,172.042 295.816,173.315 295.896 M200.700 295.896 C 202.075 295.974,204.325 295.974,205.700 295.896 C 207.075 295.818,205.950 295.754,203.200 295.754 C 200.450 295.754,199.325 295.818,200.700 295.896 M180.093 297.200 C 180.093 297.970,180.175 298.285,180.276 297.900 C 180.376 297.515,180.376 296.885,180.276 296.500 C 180.175 296.115,180.093 296.430,180.093 297.200 M252.093 297.200 C 252.093 297.970,252.175 298.285,252.276 297.900 C 252.376 297.515,252.376 296.885,252.276 296.500 C 252.175 296.115,252.093 296.430,252.093 297.200 M288.093 297.200 C 288.093 297.970,288.175 298.285,288.276 297.900 C 288.376 297.515,288.376 296.885,288.276 296.500 C 288.175 296.115,288.093 296.430,288.093 297.200 M128.575 298.100 L 127.400 299.400 128.700 298.225 C 129.912 297.130,130.184 296.800,129.875 296.800 C 129.806 296.800,129.221 297.385,128.575 298.100 M124.264 303.011 C 122.050 305.695,118.927 310.669,117.238 314.200 C 116.712 315.300,116.147 316.483,115.982 316.828 C 114.317 320.323,112.467 326.137,112.172 328.800 C 112.062 329.790,111.754 331.140,111.486 331.800 C 110.964 333.089,110.803 351.182,111.286 354.200 C 111.428 355.080,111.556 356.396,111.571 357.124 C 111.588 357.888,111.767 358.344,111.995 358.203 C 112.219 358.064,112.291 358.219,112.160 358.560 C 112.033 358.891,112.077 359.395,112.258 359.681 C 112.440 359.966,112.606 360.290,112.628 360.400 C 112.651 360.510,112.780 360.870,112.916 361.200 C 113.052 361.530,113.347 362.843,113.571 364.118 C 113.796 365.392,114.254 366.827,114.590 367.307 C 114.925 367.786,115.200 368.564,115.200 369.035 C 115.200 369.506,115.520 370.321,115.911 370.846 C 116.302 371.371,116.865 372.520,117.163 373.400 C 117.460 374.280,118.040 375.322,118.452 375.716 C 118.863 376.109,119.202 376.739,119.204 377.116 C 119.207 377.492,119.925 378.700,120.800 379.800 C 121.675 380.900,122.393 382.015,122.396 382.278 C 122.398 382.541,123.345 383.686,124.500 384.823 C 125.655 385.960,126.600 387.013,126.600 387.164 C 126.600 387.635,130.950 391.806,131.319 391.689 C 131.511 391.627,131.757 391.913,131.864 392.323 C 131.971 392.733,133.216 393.830,134.630 394.759 C 136.043 395.689,137.200 396.618,137.200 396.825 C 137.200 397.031,137.425 397.200,137.700 397.200 C 137.975 397.201,138.723 397.651,139.362 398.200 C 140.001 398.750,140.862 399.200,141.275 399.200 C 141.687 399.200,142.120 399.447,142.236 399.750 C 142.352 400.052,143.202 400.612,144.124 400.994 C 145.046 401.375,146.250 401.885,146.800 402.127 C 147.350 402.369,147.980 402.584,148.200 402.606 C 148.420 402.627,149.405 403.064,150.389 403.576 C 152.377 404.611,153.248 404.908,157.600 406.040 C 161.973 407.177,166.009 407.588,175.000 407.811 C 184.873 408.056,187.059 408.256,188.134 409.009 C 188.598 409.334,189.163 409.597,189.389 409.594 C 189.615 409.591,189.530 409.413,189.200 409.200 C 188.870 408.987,188.785 408.809,189.011 408.806 C 189.237 408.803,189.730 409.160,190.107 409.600 C 190.484 410.040,191.036 410.400,191.335 410.400 C 191.633 410.400,192.293 410.760,192.800 411.200 C 193.307 411.640,193.931 412.000,194.186 412.000 C 194.441 412.000,195.049 412.540,195.537 413.200 C 196.025 413.860,196.673 414.400,196.978 414.400 C 197.755 414.400,200.000 417.340,200.000 418.358 C 200.000 418.821,200.160 419.200,200.357 419.200 C 200.553 419.200,200.826 419.650,200.964 420.200 C 201.102 420.750,201.445 421.200,201.726 421.200 C 202.031 421.200,202.277 421.801,202.337 422.692 C 202.392 423.513,202.654 424.908,202.919 425.792 C 203.280 427.000,203.400 437.676,203.400 468.700 L 203.400 510.000 224.076 510.000 C 237.429 510.000,244.840 509.858,245.000 509.600 C 245.151 509.356,244.537 509.200,243.424 509.200 L 241.600 509.200 241.503 466.700 L 241.405 424.200 241.203 466.600 L 241.000 509.000 234.400 509.047 L 227.800 509.094 227.600 504.447 L 227.400 499.800 226.000 499.800 C 224.828 499.800,224.591 499.947,224.547 500.706 C 224.503 501.460,224.524 501.477,224.675 500.806 C 224.806 500.223,225.179 500.000,226.028 500.000 L 227.200 500.000 227.200 504.600 L 227.200 509.200 226.015 509.200 L 224.830 509.200 224.698 505.500 L 224.566 501.800 224.483 505.500 L 224.400 509.200 215.214 509.200 L 206.027 509.200 205.912 466.300 L 205.797 423.400 204.899 420.800 C 201.085 409.750,194.863 406.039,179.350 405.563 C 150.580 404.679,130.917 393.343,119.827 371.244 C 109.004 349.679,111.947 317.006,126.127 301.300 C 126.574 300.805,126.822 300.400,126.679 300.400 C 126.535 300.400,125.448 301.575,124.264 303.011 M361.400 303.200 C 357.465 307.549,344.523 313.703,334.756 315.872 L 329.800 316.972 250.200 317.186 L 170.600 317.400 168.227 318.295 C 164.846 319.571,161.903 321.456,159.704 323.754 L 157.800 325.744 159.756 324.072 C 160.832 323.153,161.886 322.400,162.098 322.400 C 162.310 322.400,163.389 321.945,164.495 321.390 C 168.320 319.469,166.152 319.517,245.600 319.578 C 327.901 319.640,330.602 319.570,336.553 317.233 C 337.186 316.984,338.536 316.595,339.553 316.369 C 342.372 315.742,350.943 311.418,355.067 308.543 C 358.499 306.150,362.902 302.452,362.362 302.416 C 362.231 302.407,361.798 302.760,361.400 303.200 M210.900 312.700 C 231.525 312.757,265.275 312.757,285.900 312.700 C 306.525 312.643,289.650 312.596,248.400 312.596 C 207.150 312.596,190.275 312.643,210.900 312.700 M323.905 314.283 C 324.402 314.379,325.122 314.375,325.505 314.275 C 325.887 314.175,325.480 314.096,324.600 314.101 C 323.720 314.105,323.407 314.187,323.905 314.283 M117.750 341.000 C 117.751 343.420,117.816 344.358,117.896 343.085 C 117.976 341.812,117.975 339.832,117.894 338.685 C 117.814 337.538,117.749 338.580,117.750 341.000 M116.150 341.400 C 116.151 343.820,116.216 344.758,116.296 343.485 C 116.376 342.212,116.375 340.232,116.294 339.085 C 116.214 337.938,116.149 338.980,116.150 341.400 M133.180 340.224 C 134.269 340.430,134.372 340.600,134.515 342.426 L 134.670 344.405 134.635 342.302 C 134.600 340.226,134.584 340.199,133.300 340.100 C 132.055 340.004,132.050 340.010,133.180 340.224 M177.919 365.498 C 179.744 365.572,182.624 365.572,184.319 365.497 C 186.014 365.422,184.520 365.361,181.000 365.362 C 177.480 365.362,176.094 365.424,177.919 365.498 M177.282 368.296 C 178.758 368.373,181.278 368.373,182.882 368.297 C 184.487 368.221,183.280 368.158,180.200 368.158 C 177.120 368.157,175.807 368.219,177.282 368.296 M178.482 369.896 C 179.958 369.973,182.478 369.973,184.082 369.897 C 185.687 369.821,184.480 369.758,181.400 369.758 C 178.320 369.757,177.007 369.819,178.482 369.896 M178.093 385.200 C 178.093 385.970,178.175 386.285,178.276 385.900 C 178.376 385.515,178.376 384.885,178.276 384.500 C 178.175 384.115,178.093 384.430,178.093 385.200 M212.383 398.500 C 214.041 400.266,214.400 400.584,214.400 400.283 C 214.400 400.219,213.545 399.364,212.500 398.383 L 210.600 396.600 212.383 398.500 M177.318 402.698 C 179.033 402.773,181.733 402.772,183.318 402.697 C 184.903 402.621,183.500 402.559,180.200 402.560 C 176.900 402.561,175.603 402.622,177.318 402.698 M202.400 408.600 C 203.146 409.370,203.847 410.000,203.957 410.000 C 204.067 410.000,203.546 409.370,202.800 408.600 C 202.054 407.830,201.353 407.200,201.243 407.200 C 201.133 407.200,201.654 407.830,202.400 408.600 M242.909 424.000 C 242.909 424.990,242.987 425.395,243.082 424.900 C 243.178 424.405,243.178 423.595,243.082 423.100 C 242.987 422.605,242.909 423.010,242.909 424.000 M245.701 423.800 C 245.705 424.680,245.787 424.993,245.883 424.495 C 245.979 423.998,245.975 423.278,245.875 422.895 C 245.775 422.513,245.696 422.920,245.701 423.800 M224.569 437.000 C 224.570 441.620,224.628 443.455,224.699 441.078 C 224.770 438.701,224.769 434.921,224.698 432.678 C 224.627 430.435,224.569 432.380,224.569 437.000 M224.569 471.800 C 224.570 476.420,224.628 478.255,224.699 475.878 C 224.770 473.501,224.769 469.721,224.698 467.478 C 224.627 465.235,224.569 467.180,224.569 471.800 M227.371 472.800 C 227.371 477.750,227.428 479.775,227.499 477.300 C 227.569 474.825,227.569 470.775,227.499 468.300 C 227.428 465.825,227.371 467.850,227.371 472.800 " stroke="none" fill="#c4ccd4" fill-rule="evenodd"></path><path id="path4" d="M199.793 42.200 C 199.793 65.520,199.841 75.119,199.900 63.531 C 199.959 51.942,199.959 32.862,199.900 21.131 C 199.841 9.399,199.793 18.880,199.793 42.200 M236.993 42.400 C 236.993 65.830,237.041 75.415,237.100 63.700 C 237.159 51.985,237.159 32.815,237.100 21.100 C 237.041 9.385,236.993 18.970,236.993 42.400 M188.073 8.952 C 186.493 10.576,185.200 12.106,185.200 12.352 C 185.200 12.598,184.975 12.803,184.700 12.806 C 184.388 12.810,184.352 12.923,184.602 13.106 C 185.020 13.411,185.203 98.023,184.789 99.200 C 184.673 99.530,184.435 100.028,184.261 100.307 C 183.770 101.093,183.544 102.800,183.932 102.800 C 185.304 102.800,187.585 100.265,188.848 97.335 L 190.200 94.200 190.200 51.300 C 190.200 27.705,190.319 8.400,190.465 8.400 C 190.610 8.400,190.678 8.085,190.616 7.700 C 190.554 7.315,190.682 6.775,190.900 6.500 C 191.962 5.165,190.657 6.297,188.073 8.952 M159.900 107.899 C 163.035 107.967,168.165 107.967,171.300 107.899 C 174.435 107.832,171.870 107.776,165.600 107.776 C 159.330 107.776,156.765 107.832,159.900 107.899 M215.385 123.700 L 213.400 125.800 215.500 123.815 C 217.451 121.971,217.783 121.600,217.485 121.600 C 217.422 121.600,216.477 122.545,215.385 123.700 M216.378 124.700 L 215.000 126.200 216.500 124.822 C 217.896 123.538,218.184 123.200,217.878 123.200 C 217.812 123.200,217.137 123.875,216.378 124.700 M218.581 126.900 L 217.000 128.600 218.700 127.019 C 220.281 125.548,220.584 125.200,220.281 125.200 C 220.216 125.200,219.451 125.965,218.581 126.900 M27.190 134.700 C 20.926 141.296,18.907 144.100,15.448 151.000 C 13.705 154.478,10.776 162.161,10.568 163.800 C 10.512 164.240,10.438 164.600,10.403 164.600 C 10.261 164.600,9.948 166.302,9.777 168.000 C 9.677 168.990,9.413 171.139,9.191 172.775 C 8.959 174.481,8.887 179.004,9.022 183.375 C 9.151 187.569,9.263 191.405,9.271 191.900 C 9.278 192.395,9.401 192.800,9.542 192.800 C 9.684 192.800,9.826 193.251,9.858 193.802 C 9.890 194.352,10.052 195.117,10.218 195.501 C 10.666 196.535,11.254 199.583,11.337 201.300 C 11.356 201.685,11.513 202.000,11.686 202.000 C 11.859 202.000,12.000 202.157,12.000 202.349 C 12.000 202.541,12.395 203.576,12.878 204.649 C 13.361 205.722,13.805 206.870,13.865 207.200 C 13.924 207.530,14.334 208.502,14.774 209.359 C 15.214 210.217,15.491 211.053,15.389 211.217 C 15.288 211.382,15.435 211.604,15.716 211.712 C 15.997 211.820,16.581 212.647,17.013 213.550 C 17.446 214.452,17.935 215.193,18.100 215.195 C 18.265 215.198,18.400 215.457,18.400 215.771 C 18.400 216.086,18.625 216.581,18.900 216.871 C 19.990 218.024,21.792 220.617,21.699 220.900 C 21.644 221.065,21.784 221.200,22.009 221.200 C 22.233 221.200,22.621 221.647,22.869 222.192 C 23.118 222.738,23.650 223.289,24.053 223.417 C 24.455 223.544,24.744 223.773,24.694 223.924 C 24.584 224.266,27.134 226.928,29.801 229.254 C 30.901 230.214,31.887 231.180,31.991 231.400 C 32.096 231.620,32.982 232.186,33.960 232.657 C 35.362 233.333,35.576 233.556,34.969 233.711 C 34.315 233.878,34.337 233.914,35.117 233.954 C 35.621 233.979,36.420 234.360,36.892 234.800 C 37.364 235.240,37.998 235.600,38.299 235.600 C 38.624 235.600,38.730 235.803,38.559 236.100 C 38.401 236.375,38.413 236.473,38.585 236.317 C 38.856 236.073,40.082 236.601,42.400 237.960 C 42.730 238.154,43.664 238.637,44.476 239.034 C 45.287 239.431,45.852 239.915,45.732 240.110 C 45.611 240.305,45.847 240.414,46.256 240.352 C 46.665 240.290,48.059 240.642,49.353 241.134 C 50.647 241.626,51.795 241.938,51.905 241.828 C 52.015 241.718,52.481 241.892,52.942 242.214 C 53.402 242.536,54.098 242.800,54.489 242.800 C 54.880 242.800,55.200 242.980,55.200 243.200 C 55.200 243.420,56.055 243.602,57.100 243.604 C 58.145 243.607,59.884 243.877,60.964 244.204 C 62.685 244.726,78.360 244.800,187.881 244.800 C 319.991 244.800,318.000 244.775,318.000 246.466 C 318.000 246.669,318.225 246.798,318.500 246.752 C 319.293 246.621,321.200 247.251,321.200 247.643 C 321.200 247.840,321.397 248.000,321.638 248.000 C 322.370 248.000,324.425 249.636,324.184 250.026 C 324.060 250.227,324.195 250.300,324.485 250.189 C 325.787 249.689,331.136 257.406,331.320 260.049 C 331.364 260.681,331.546 261.199,331.724 261.199 C 331.902 261.200,331.956 261.347,331.845 261.526 C 331.734 261.706,331.874 262.522,332.155 263.339 C 332.730 265.012,332.621 269.499,331.957 271.524 C 331.718 272.252,331.485 273.102,331.439 273.412 C 331.394 273.723,331.231 274.102,331.078 274.255 C 330.310 275.024,330.970 275.129,332.300 274.451 C 334.349 273.405,336.124 271.069,336.593 268.800 C 336.616 268.690,336.895 267.880,337.214 267.000 C 337.921 265.052,337.993 257.033,337.311 256.351 C 337.064 256.104,336.952 255.669,337.062 255.384 C 337.171 255.098,336.932 254.363,336.530 253.750 C 336.129 253.137,335.855 252.577,335.922 252.506 C 336.225 252.188,334.199 248.800,333.705 248.800 C 333.402 248.800,333.249 248.645,333.366 248.455 C 333.483 248.266,332.774 247.356,331.789 246.433 C 330.805 245.511,330.000 244.600,330.000 244.410 C 330.000 244.219,329.458 243.945,328.797 243.799 C 328.135 243.654,327.684 243.388,327.794 243.209 C 327.997 242.882,326.860 242.218,326.300 242.336 C 326.135 242.371,326.000 242.237,326.000 242.037 C 326.000 241.570,321.678 240.145,320.510 240.227 C 320.021 240.262,319.717 240.135,319.834 239.945 C 319.951 239.755,319.362 239.601,318.524 239.602 C 190.263 239.759,70.257 239.449,68.000 238.954 C 66.570 238.641,65.085 238.461,64.699 238.555 C 64.314 238.649,64.086 238.585,64.191 238.414 C 64.363 238.136,62.478 237.733,59.600 237.432 C 59.050 237.375,57.880 237.008,57.000 236.616 C 55.352 235.884,53.552 235.118,53.200 235.000 C 53.090 234.963,52.460 234.699,51.800 234.412 C 51.140 234.126,50.281 233.905,49.891 233.921 C 49.502 233.938,49.279 233.795,49.397 233.605 C 49.515 233.414,49.204 233.131,48.706 232.977 C 48.208 232.822,46.498 231.909,44.907 230.948 C 43.316 229.987,41.696 229.197,41.307 229.194 C 40.704 229.189,40.688 229.131,41.200 228.800 C 41.731 228.457,41.730 228.412,41.189 228.406 C 40.853 228.403,39.987 227.860,39.264 227.200 C 38.542 226.540,37.827 225.999,37.675 225.998 C 37.524 225.996,36.455 225.124,35.300 224.060 C 34.145 222.996,33.200 222.215,33.200 222.324 C 33.200 222.434,32.844 222.202,32.409 221.809 C 31.975 221.415,31.694 220.972,31.786 220.823 C 32.000 220.477,29.814 218.400,29.236 218.400 C 28.996 218.400,28.800 218.104,28.800 217.743 C 28.800 217.382,28.220 216.532,27.510 215.854 C 26.801 215.176,26.190 214.437,26.152 214.211 C 26.114 213.985,25.203 212.450,24.127 210.800 C 23.052 209.150,21.818 207.080,21.386 206.200 C 20.954 205.320,20.465 204.540,20.300 204.467 C 20.135 204.393,20.000 204.045,20.000 203.693 C 20.000 202.911,18.404 199.500,17.869 199.140 C 17.657 198.998,17.592 198.598,17.724 198.253 C 17.857 197.908,17.822 197.537,17.646 197.429 C 16.900 196.967,15.344 189.614,14.592 183.000 C 12.443 164.086,18.439 144.077,29.726 132.500 C 30.851 131.345,31.660 130.400,31.523 130.400 C 31.385 130.400,29.435 132.335,27.190 134.700 M207.400 137.460 C 201.154 143.029,189.193 148.681,180.800 150.031 C 179.590 150.225,178.150 150.516,177.600 150.676 C 177.050 150.837,157.790 151.021,134.800 151.085 C 86.674 151.220,73.878 151.344,72.200 151.691 C 68.027 152.554,64.787 154.278,63.620 156.256 C 62.780 157.679,62.851 158.783,63.736 158.059 C 65.473 156.636,66.645 156.604,119.000 156.547 C 169.788 156.492,172.196 156.464,173.034 155.917 C 173.273 155.761,174.173 155.596,175.034 155.549 C 175.895 155.502,176.780 155.330,177.000 155.166 C 177.220 155.002,178.194 154.750,179.164 154.605 C 180.751 154.369,182.737 153.749,185.000 152.785 C 185.440 152.597,186.700 152.068,187.800 151.608 C 188.900 151.149,190.070 150.604,190.400 150.397 C 190.730 150.191,191.630 149.713,192.400 149.334 C 196.536 147.303,201.642 143.499,206.400 138.906 C 209.549 135.866,210.129 135.026,207.400 137.460 M104.531 140.700 C 117.693 140.758,139.113 140.758,152.131 140.700 C 165.149 140.641,154.380 140.594,128.200 140.594 C 102.020 140.594,91.369 140.641,104.531 140.700 M24.954 169.200 C 24.954 171.950,25.018 173.075,25.096 171.700 C 25.174 170.325,25.174 168.075,25.096 166.700 C 25.018 165.325,24.954 166.450,24.954 169.200 M141.900 193.100 C 175.615 193.156,230.785 193.156,264.500 193.100 C 298.215 193.044,270.630 192.997,203.200 192.997 C 135.770 192.997,108.185 193.044,141.900 193.100 M250.700 197.500 C 264.175 197.558,286.225 197.558,299.700 197.500 C 313.175 197.442,302.150 197.394,275.200 197.394 C 248.250 197.394,237.225 197.442,250.700 197.500 M41.583 211.700 C 42.564 212.745,43.419 213.600,43.483 213.600 C 43.784 213.600,43.466 213.241,41.700 211.583 L 39.800 209.800 41.583 211.700 M40.800 213.000 C 41.546 213.770,42.247 214.400,42.357 214.400 C 42.467 214.400,41.946 213.770,41.200 213.000 C 40.454 212.230,39.753 211.600,39.643 211.600 C 39.533 211.600,40.054 212.230,40.800 213.000 M92.493 213.200 C 92.493 213.970,92.575 214.285,92.676 213.900 C 92.776 213.515,92.776 212.885,92.676 212.500 C 92.575 212.115,92.493 212.430,92.493 213.200 M128.493 213.200 C 128.493 213.970,128.575 214.285,128.676 213.900 C 128.776 213.515,128.776 212.885,128.676 212.500 C 128.575 212.115,128.493 212.430,128.493 213.200 M164.493 213.200 C 164.493 213.970,164.575 214.285,164.676 213.900 C 164.776 213.515,164.776 212.885,164.676 212.500 C 164.575 212.115,164.493 212.430,164.493 213.200 M200.493 213.200 C 200.493 213.970,200.575 214.285,200.676 213.900 C 200.776 213.515,200.776 212.885,200.676 212.500 C 200.575 212.115,200.493 212.430,200.493 213.200 M236.493 213.200 C 236.493 213.970,236.575 214.285,236.676 213.900 C 236.776 213.515,236.776 212.885,236.676 212.500 C 236.575 212.115,236.493 212.430,236.493 213.200 M272.493 213.200 C 272.493 213.970,272.575 214.285,272.676 213.900 C 272.776 213.515,272.776 212.885,272.676 212.500 C 272.575 212.115,272.493 212.430,272.493 213.200 M308.493 213.200 C 308.493 213.970,308.575 214.285,308.676 213.900 C 308.776 213.515,308.776 212.885,308.676 212.500 C 308.575 212.115,308.493 212.430,308.493 213.200 M351.600 223.325 C 351.600 223.394,352.185 223.979,352.900 224.625 L 354.200 225.800 353.025 224.500 C 351.930 223.288,351.600 223.016,351.600 223.325 M125.732 230.300 C 150.995 230.357,192.215 230.357,217.332 230.300 C 242.449 230.243,221.780 230.197,171.400 230.197 C 121.020 230.197,100.469 230.243,125.732 230.300 M381.293 255.200 C 381.293 255.970,381.375 256.285,381.476 255.900 C 381.576 255.515,381.576 254.885,381.476 254.500 C 381.375 254.115,381.293 254.430,381.293 255.200 M172.100 277.076 C 172.485 277.176,173.115 277.176,173.500 277.076 C 173.885 276.975,173.570 276.893,172.800 276.893 C 172.030 276.893,171.715 276.975,172.100 277.076 M210.732 281.500 C 231.484 281.557,265.324 281.557,285.932 281.500 C 306.539 281.443,289.560 281.396,248.200 281.396 C 206.840 281.396,189.979 281.443,210.732 281.500 M211.100 295.893 C 212.035 295.977,213.565 295.977,214.500 295.893 C 215.435 295.809,214.670 295.740,212.800 295.740 C 210.930 295.740,210.165 295.809,211.100 295.893 M238.523 295.899 C 241.120 295.969,245.260 295.968,247.723 295.898 C 250.185 295.828,248.060 295.771,243.000 295.772 C 237.940 295.772,235.925 295.829,238.523 295.899 M274.523 295.899 C 277.120 295.969,281.260 295.968,283.723 295.898 C 286.185 295.828,284.060 295.771,279.000 295.772 C 273.940 295.772,271.925 295.829,274.523 295.899 M310.523 295.899 C 313.120 295.969,317.260 295.968,319.723 295.898 C 322.185 295.828,320.060 295.771,315.000 295.772 C 309.940 295.772,307.925 295.829,310.523 295.899 M362.589 302.500 L 359.800 305.400 362.700 302.611 C 365.394 300.020,365.783 299.600,365.489 299.600 C 365.428 299.600,364.123 300.905,362.589 302.500 M120.757 305.900 C 115.454 311.428,109.600 319.013,109.600 320.353 C 109.600 320.568,109.368 320.981,109.084 321.271 C 108.584 321.783,106.783 325.388,106.621 326.200 C 106.577 326.420,106.240 327.297,105.871 328.149 C 105.502 329.001,105.200 329.754,105.200 329.823 C 105.200 329.892,104.992 330.455,104.739 331.074 C 104.485 331.693,104.213 332.560,104.134 333.000 C 104.055 333.440,103.876 334.070,103.735 334.400 C 101.705 339.163,100.731 362.286,102.396 366.200 C 102.583 366.640,103.136 368.710,103.624 370.800 C 104.112 372.890,104.653 374.782,104.826 375.005 C 104.998 375.227,105.198 375.947,105.270 376.605 C 105.341 377.262,105.724 378.041,106.119 378.336 C 106.656 378.736,106.728 379.005,106.402 379.397 C 106.163 379.686,106.117 379.985,106.300 380.061 C 106.875 380.300,108.400 383.058,108.400 383.859 C 108.400 384.279,108.760 384.883,109.200 385.200 C 109.640 385.517,110.000 385.979,110.000 386.227 C 110.000 386.475,110.360 387.093,110.800 387.600 C 111.240 388.107,111.600 388.865,111.600 389.285 C 111.600 389.704,111.741 389.960,111.913 389.854 C 112.085 389.747,112.660 390.322,113.190 391.130 C 113.721 391.939,114.479 392.960,114.875 393.400 C 116.654 395.375,117.555 396.711,117.289 396.978 C 117.130 397.137,117.180 397.207,117.400 397.133 C 117.620 397.060,117.882 397.180,117.982 397.400 C 118.082 397.620,118.892 398.412,119.782 399.159 C 120.672 399.906,121.340 400.716,121.267 400.959 C 121.193 401.202,121.258 401.276,121.410 401.124 C 121.562 400.972,122.160 401.287,122.739 401.824 C 123.318 402.361,123.939 402.800,124.120 402.800 C 124.300 402.800,124.336 402.980,124.200 403.200 C 124.064 403.420,124.160 403.600,124.413 403.600 C 124.667 403.600,125.286 403.915,125.791 404.300 C 126.295 404.685,127.043 405.220,127.454 405.489 C 127.864 405.758,129.141 406.613,130.290 407.389 C 131.440 408.165,132.491 408.800,132.626 408.800 C 132.761 408.800,133.229 409.205,133.666 409.700 C 134.103 410.195,134.359 410.394,134.234 410.143 C 134.038 409.750,137.847 411.447,138.400 412.000 C 138.510 412.110,138.870 412.259,139.200 412.330 C 139.530 412.402,139.860 412.627,139.933 412.830 C 140.007 413.034,140.242 413.200,140.457 413.200 C 140.672 413.200,140.740 413.026,140.609 412.814 C 140.272 412.269,143.336 413.591,143.694 414.145 C 143.856 414.395,143.991 414.484,143.994 414.342 C 143.999 414.115,144.947 414.287,147.800 415.032 C 148.240 415.147,149.044 415.332,149.588 415.444 C 150.131 415.556,150.761 415.793,150.988 415.970 C 151.693 416.522,153.564 416.708,153.721 416.242 C 153.822 415.941,154.082 415.975,154.533 416.348 C 155.042 416.767,157.465 416.933,164.898 417.057 C 172.958 417.191,177.098 417.418,178.400 417.799 C 179.137 418.014,181.044 419.046,181.256 419.344 C 181.397 419.543,181.866 419.726,182.299 419.753 C 183.555 419.828,187.504 422.934,187.290 423.678 C 187.230 423.888,187.348 423.956,187.554 423.829 C 187.872 423.632,188.443 424.202,190.326 426.600 C 190.762 427.155,191.315 428.497,191.361 429.113 C 191.383 429.396,191.584 429.756,191.808 429.913 C 192.448 430.363,193.201 432.332,192.966 432.944 C 192.850 433.248,193.034 433.604,193.377 433.736 C 193.720 433.867,194.000 434.261,194.000 434.611 C 194.000 434.961,193.845 435.151,193.656 435.034 C 193.464 434.916,193.457 435.573,193.638 436.511 C 193.818 437.440,193.973 454.355,193.983 474.100 L 194.000 510.000 196.800 510.000 L 199.600 510.000 199.600 470.346 C 199.600 431.000,199.496 427.600,198.294 427.600 C 198.085 427.600,198.025 427.313,198.159 426.962 C 198.468 426.158,197.013 422.800,196.356 422.800 C 196.087 422.800,195.980 422.686,196.119 422.547 C 196.490 422.177,195.625 420.738,195.192 421.005 C 194.989 421.130,194.718 420.814,194.590 420.302 C 194.461 419.790,193.964 419.197,193.485 418.985 C 193.006 418.773,192.415 418.196,192.171 417.702 C 191.928 417.209,191.610 416.924,191.464 417.069 C 191.319 417.214,191.200 417.123,191.200 416.867 C 191.200 416.610,190.930 416.400,190.600 416.400 C 190.270 416.400,190.045 416.208,190.100 415.974 C 190.244 415.357,185.387 412.800,184.072 412.800 C 183.460 412.800,182.782 412.622,182.565 412.405 C 182.338 412.178,178.349 411.946,173.185 411.859 C 168.243 411.776,163.750 411.604,163.200 411.478 C 162.650 411.351,161.390 411.157,160.400 411.046 C 158.063 410.784,153.966 410.031,153.200 409.721 C 152.086 409.272,151.600 409.269,151.600 409.712 C 151.600 409.954,151.375 409.845,151.099 409.468 C 150.824 409.092,150.014 408.742,149.300 408.692 C 148.586 408.641,148.001 408.461,148.001 408.290 C 148.000 407.960,146.359 407.250,145.184 407.071 C 144.796 407.011,144.235 406.768,143.939 406.531 C 143.643 406.293,142.320 405.564,141.000 404.909 C 138.033 403.439,135.896 402.230,134.069 400.988 C 133.297 400.464,132.489 400.145,132.271 400.279 C 132.054 400.414,131.992 400.336,132.134 400.107 C 132.275 399.878,132.123 399.468,131.796 399.196 C 131.468 398.924,131.200 398.792,131.200 398.901 C 131.200 399.123,127.290 395.587,124.453 392.800 C 123.446 391.810,122.437 391.000,122.211 391.000 C 121.986 391.000,121.801 390.703,121.801 390.341 C 121.800 389.978,121.215 389.121,120.500 388.437 C 119.785 387.753,119.200 387.039,119.200 386.852 C 119.200 386.515,117.445 384.065,116.225 382.700 C 115.881 382.315,115.569 381.865,115.532 381.700 C 115.222 380.332,113.456 377.242,113.107 377.458 C 112.868 377.605,112.791 377.538,112.933 377.308 C 113.312 376.694,112.398 374.354,111.899 374.662 C 111.654 374.814,111.594 374.733,111.757 374.470 C 111.911 374.221,111.836 373.641,111.591 373.182 C 111.345 372.723,111.073 371.980,110.987 371.530 C 110.900 371.081,110.427 369.881,109.935 368.865 C 109.443 367.849,109.075 366.599,109.118 366.087 C 109.160 365.575,109.052 365.244,108.877 365.352 C 108.703 365.460,108.543 365.155,108.522 364.674 C 108.436 362.688,108.205 361.600,107.870 361.600 C 107.674 361.600,107.618 361.330,107.745 361.000 C 107.871 360.670,107.846 360.400,107.687 360.400 C 107.410 360.399,107.232 357.947,107.211 353.800 C 107.205 352.700,107.065 352.008,106.900 352.263 C 106.735 352.518,106.648 350.988,106.707 348.863 C 106.939 340.464,108.052 331.819,109.392 328.024 C 109.709 327.125,109.997 326.256,110.032 326.094 C 110.067 325.932,110.254 325.383,110.448 324.874 C 110.642 324.365,110.800 323.777,110.800 323.569 C 110.800 323.360,110.962 322.877,111.159 322.495 C 111.357 322.113,112.281 320.208,113.212 318.263 C 115.475 313.537,118.932 308.344,121.989 305.076 C 123.365 303.604,124.407 302.400,124.303 302.400 C 124.199 302.400,122.603 303.975,120.757 305.900 M354.400 310.062 C 349.595 314.280,340.732 318.809,332.800 321.101 C 325.041 323.342,327.406 323.284,246.200 323.221 C 196.644 323.184,170.118 323.305,167.600 323.581 C 161.491 324.251,157.624 325.996,156.052 328.792 C 155.085 330.514,155.350 330.757,157.169 329.816 C 157.790 329.495,158.378 329.312,158.476 329.409 C 158.573 329.507,159.265 329.411,160.014 329.196 C 160.876 328.949,189.870 328.799,239.187 328.786 C 303.759 328.769,317.440 328.672,319.589 328.214 C 321.012 327.911,322.310 327.744,322.472 327.845 C 322.635 327.945,323.090 327.852,323.484 327.639 C 323.878 327.425,325.794 326.864,327.742 326.392 C 329.690 325.920,332.570 324.940,334.142 324.214 C 335.714 323.488,337.684 322.608,338.520 322.259 C 342.179 320.730,350.387 314.748,354.185 310.842 C 356.412 308.551,356.505 308.214,354.400 310.062 M148.948 341.200 C 148.948 343.510,149.014 344.455,149.095 343.300 C 149.176 342.145,149.176 340.255,149.095 339.100 C 149.014 337.945,148.948 338.890,148.948 341.200 M153.328 341.200 C 153.328 342.630,153.401 343.215,153.489 342.500 C 153.578 341.785,153.578 340.615,153.489 339.900 C 153.401 339.185,153.328 339.770,153.328 341.200 M180.300 386.695 C 181.455 386.776,183.345 386.776,184.500 386.695 C 185.655 386.614,184.710 386.548,182.400 386.548 C 180.090 386.548,179.145 386.614,180.300 386.695 M175.500 401.098 C 177.315 401.172,180.285 401.172,182.100 401.098 C 183.915 401.023,182.430 400.963,178.800 400.963 C 175.170 400.963,173.685 401.023,175.500 401.098 M210.177 437.000 C 210.177 443.600,210.232 446.356,210.299 443.125 C 210.366 439.893,210.366 434.493,210.299 431.125 C 210.232 427.756,210.177 430.400,210.177 437.000 M242.898 467.471 C 242.806 506.392,242.760 508.752,242.100 508.924 C 241.444 509.096,241.445 509.110,242.113 509.154 C 243.236 509.227,243.211 510.254,243.101 467.200 L 242.996 426.200 242.898 467.471 M225.300 427.876 C 225.685 427.976,226.315 427.976,226.700 427.876 C 227.085 427.775,226.770 427.693,226.000 427.693 C 225.230 427.693,224.915 427.775,225.300 427.876 M225.300 463.876 C 225.685 463.976,226.315 463.976,226.700 463.876 C 227.085 463.775,226.770 463.693,226.000 463.693 C 225.230 463.693,224.915 463.775,225.300 463.876 M225.300 509.076 C 225.685 509.176,226.315 509.176,226.700 509.076 C 227.085 508.975,226.770 508.893,226.000 508.893 C 225.230 508.893,224.915 508.975,225.300 509.076 " stroke="none" fill="#e4e4eb" fill-rule="evenodd"></path></g></svg>