<svg id="Layer_1" data-name="Layer 1" xmlns="http://www.w3.org/2000/svg" viewBox="0 0 493.71 782.86"><defs><style>.cls-1{fill:none;stroke:#2aa89a;stroke-miterlimit:10;}</style></defs><title>patron</title><path class="cls-1" d="M295.34,6l0,123.22s-7.9,68.37-72.4,68.34H86.3A65.09,65.09,0,0,0,63,203.29a56,56,0,0,0-24.9,21.39,66.21,66.21,0,0,0-9,24.85,99.6,99.6,0,0,0-1.2,17.1,66.62,66.62,0,0,0,1.2,18.21,58.56,58.56,0,0,0,6.14,17c5.61,10,15.3,19.35,32,23.54a81.64,81.64,0,0,0,19.09,2.31H416.83a78.45,78.45,0,0,1,15.11,1.07,46.59,46.59,0,0,1,15.63,5.48,35.91,35.91,0,0,1,9.28,7.72,45.23,45.23,0,0,1,8.47,15.69,93.77,93.77,0,0,1,3.93,22.42c.29,4.26.41,8.69.41,13.24a116.26,116.26,0,0,1-1.18,17.41,60.39,60.39,0,0,1-6.55,20.32,41.85,41.85,0,0,1-14.87,15.57A54.82,54.82,0,0,1,431,453.14a86.31,86.31,0,0,1-14.15,2.12H230.25a65.28,65.28,0,0,0-15.78,2.86A71.89,71.89,0,0,0,198,465.39a64.25,64.25,0,0,0-17,14.92,68.68,68.68,0,0,0-9.28,15.56,84.16,84.16,0,0,0-5.07,16.19,109.62,109.62,0,0,0-2.08,15.51,77,77,0,0,0,2,15,65.22,65.22,0,0,0,6.91,17.56,58.55,58.55,0,0,0,15.76,17.69,69,69,0,0,0,16.17,8.9,92.74,92.74,0,0,0,16.39,4.72,123.62,123.62,0,0,0,13.05,1.83c3.51-.63,25.91,1.31,32.34,3.8a58.61,58.61,0,0,1,18.71,11.56A57.31,57.31,0,0,1,294,618a70.47,70.47,0,0,1,10.59,24.62,108.24,108.24,0,0,1,2.64,21.54V779.22h17V653.13a108.24,108.24,0,0,0-2.64-21.54A70.47,70.47,0,0,0,311,607a57.31,57.31,0,0,0-8.12-9.35,58.61,58.61,0,0,0-18.71-11.56c-6.43-2.49-33.45-7.43-37-6.8-4.65-.41-22.95-1.62-27.82-3.55-6.3-2.48-33.86-13.34-33.07-47.68-2.5-36.52,27.17-49.08,33.07-52.64,5.74-3.48,27.82-5.13,27.82-5.13H414c70.85-.11,71.93-43.5,72.54-85-1.21-44.41-7.64-74-72.54-74.55-24.85,0-329.82-.31-329.82-.31-20.35.23-36.69-21.91-36.69-46.77,0-30.86,18-50.72,36.69-50.09H240c64.5,0,72.4-68.34,72.4-68.34L312.34,6Z"/></svg>